<?xml version="1.0" encoding="utf-8"?>
<!-- Generator: Adobe Illustrator 16.0.0, SVG Export Plug-In . SVG Version: 6.00 Build 0)  -->
<!DOCTYPE svg PUBLIC "-//W3C//DTD SVG 1.1//EN" "http://www.w3.org/Graphics/SVG/1.1/DTD/svg11.dtd">
<svg version="1.1" id="Capa_1" xmlns="http://www.w3.org/2000/svg" xmlns:xlink="http://www.w3.org/1999/xlink" x="0px" y="0px"
	 width="730px" height="150px" viewBox="0 0 730 150" enable-background="new 0 0 730 150" xml:space="preserve">
<symbol  id="Nuevo_símbolo" viewBox="-262.965 -51.882 525.93 96.453">
	<g>
		<path fill-rule="evenodd" clip-rule="evenodd" fill="#004F92" d="M135.875-27.064c-1.508,1.733-2.76,3.615-4.091,5.477
			c0.846,0.109,1.599,0.365,2.208,0.988c0.609,0.621,0.989,1.52,0.989,2.435c0,2.455-1.977,3.428-3.684,3.428h-5.295l-0.142-0.184
			c0.017-0.991,0.053-1.964,0.069-2.95c0.017-1.811,0.058-3.571,0.058-5.453c0-1.219,0.032-2.517-0.146-3.741l0.146-0.203
			l2.402,0.038l0.199,0.165c-0.09,1.664-0.057,3.667-0.073,5.33l0.735,0.019c0.972-1.461,2.37-3.668,3.5-5.44l0.18-0.111
			l2.891,0.038L135.875-27.064z M132.289-18.238L132.289-18.238c0-1.829-1.671-1.867-3.321-1.867H128.5v2.273v1.281
			c0,0,0.736,0.073,1.63,0.073C131.533-16.477,132.289-17.031,132.289-18.238"/>
		<path fill-rule="evenodd" clip-rule="evenodd" fill="#004F92" d="M143.465-22.779c0,2.471-0.951,4.414-3.735,4.414
			c-2.639,0-4.164-1.865-4.164-4.56c0-2.326,1.277-4.542,4.363-4.542c0.935,0,2.102,0.256,2.906,0.805l0.146,0.184l0.106,1.207
			l-0.143,0.131c-0.735-0.439-1.419-0.862-2.297-0.862c-1.582,0-2.316,1.283-2.428,2.894l5.119,0.111L143.465-22.779z
			 M140.969-21.678L140.969-21.678l-2.749-0.148c0,1.211,0.469,2.067,1.387,2.067C140.555-19.759,140.932-20.653,140.969-21.678"/>
		<path fill-rule="evenodd" clip-rule="evenodd" fill="#004F92" d="M152.544-18.729l-0.054,0.198c-0.5-0.089-0.788-0.109-1.22-0.109
			c-1.129,0-2.244,0.276-3.375,0.276c-2.207,0-3.589-0.977-3.589-3.062c0-1.135,0.426-1.845,1.472-2.523
			c-0.562-0.55-1.472-1.338-1.472-2.18c0-0.719,0.501-1.065,1.362-1.191c-0.951-0.846-1.577-1.578-1.577-2.508
			c0-1.708,1.703-2.347,3.715-2.347c2.618,0,4.7,1.317,4.7,3.685c0,1.609-1.147,2.23-2.586,2.433l-2.798,0.382
			c-0.377,0.059-0.593,0.037-0.593,0.257c0,0.202,0.557,0.769,0.683,0.898c0.468-0.108,0.916-0.183,1.309-0.183
			c1.798,0,3.196,1.432,3.196,3.13c0,0.736-0.232,1.285-0.772,1.854l0.95-0.072l0.18,0.088
			C152.254-19.299,152.364-19.116,152.544-18.729 M149.295-21.572L149.295-21.572c0-0.967-0.379-1.85-1.256-1.85
			c-0.899,0-1.31,0.955-1.31,1.923c0,0.736,0.357,1.83,1.256,1.83C148.848-19.668,149.295-20.599,149.295-21.572 M150.104-28.966
			L150.104-28.966c0-1.103-1.061-1.927-2.191-1.927c-0.805,0-1.472,0.439-1.472,1.228c0,0.752,0.538,1.354,1.257,2.09
			C148.722-27.649,150.104-27.686,150.104-28.966"/>
		<path fill-rule="evenodd" clip-rule="evenodd" fill="#004F92" d="M156.238-15.36c0,0.821-0.684,1.517-1.508,1.517
			c-0.826,0-1.528-0.675-1.528-1.517c0-0.845,0.683-1.524,1.528-1.524C155.535-16.884,156.238-16.185,156.238-15.36 M156.202-26.99
			L156.202-26.99c-0.147,0.623-0.163,1.097-0.163,1.956v2.865c0,1.119,0.127,2.583-0.178,3.676l-0.2,0.056l-2.297-0.349
			l-0.036-0.215c0.235-1.082,0.146-2.249,0.146-3.351v-2.757c0-0.747-0.09-1.462,0.23-2.159l2.372,0.038L156.202-26.99z"/>
		<path fill-rule="evenodd" clip-rule="evenodd" fill="#004F92" d="M164.224-24.754c0,2.983-3.948,2.524-3.948,4.008
			c0,0.606,0.684,0.878,1.256,0.878c0.61,0,1.188-0.146,1.756-0.402l0.185,0.042c0.199,0.438,0.304,0.637,0.557,1.024l-0.057,0.198
			c-0.969,0.423-1.903,0.642-2.944,0.642c-1.703,0-3.338-0.804-3.338-2.508c0-2.841,3.948-2.309,3.948-4.049
			c0-0.695-0.537-1.044-1.311-1.044c-0.698,0-1.485,0.276-2.295,0.804l-0.18-0.071c-0.126-0.44-0.236-0.677-0.41-1.047l0.105-0.198
			c1.004-0.639,2.26-0.972,3.248-0.972C162.662-27.449,164.224-26.534,164.224-24.754"/>
		<path fill-rule="evenodd" clip-rule="evenodd" fill="#004F92" d="M170.609-25.689l-0.089,0.089
			c-0.446-0.24-0.956-0.346-1.508-0.346c-0.684,0-0.72,0.492-0.72,1.062v4.724l2.032-0.017l0.143,0.163
			c0.053,0.476,0.069,0.7,0.142,1.155L170.5-18.62l-2.207-0.041v0.26c0,0.825,0.089,1.664,0.199,2.488l-0.144,0.073l-2.406-0.346
			l-0.073-0.15l-0.105-2.325l-1.271,0.041l-0.11-0.22c0.126-0.439,0.195-0.679,0.269-1.175l0.109-0.163l1.004,0.017v-5.325
			c0-1.524,0.789-1.891,2.28-1.891c0.827,0,1.81,0.11,2.188,0.204l0.179,0.146L170.609-25.689z"/>
		<path fill-rule="evenodd" clip-rule="evenodd" fill="#004F92" d="M177.777-18.66l-0.125,0.198c-0.2,0.061-0.362,0.078-0.558,0.078
			c-1.078,0-1.956-0.675-2.37-1.428c-0.054,0.622-0.09,0.842-0.326,1.317l-0.178,0.057l-2.362-0.35l-0.041-0.22
			c0.487-1.134,0.382-3.436,0.382-4.737c0-1.108,0-2.227-0.146-3.32l0.146-0.203l2.419,0.037l0.143,0.166
			c-0.021,1.203-0.036,2.354-0.036,3.561c0,1.387,0.016,2.085,0.272,2.541c0.247,0.438,0.748,0.802,1.45,0.802
			c0.195,0,0.505-0.069,0.699-0.2l0.181,0.053L177.777-18.66z"/>
		<path fill-rule="evenodd" clip-rule="evenodd" fill="#004F92" d="M186.368-22.946c0,2.696-1.581,4.581-4.273,4.581
			c-2.695,0-4.236-1.796-4.236-4.529c0-2.634,1.578-4.555,4.236-4.555C184.802-27.449,186.368-25.637,186.368-22.946
			 M183.656-23.312L183.656-23.312c0-1.537-0.521-2.69-1.492-2.69c-1.15,0-1.63,1.63-1.63,3.497c0,1.54,0.499,2.715,1.472,2.715
			C183.151-19.791,183.656-21.479,183.656-23.312"/>
		<path fill-rule="evenodd" clip-rule="evenodd" fill="#004F92" d="M203.438-14.92l-0.167,0.221l-2.292-0.037l-0.147-0.204
			c0.09-1.683,0.126-3.39,0.126-5.073v-0.585c0-2.033,0.073-3.335-0.646-4.103c-0.358-0.386-0.863-0.622-1.671-0.622
			c-2.603,0-2.313,2.342-2.313,4.688c0,1.924,0,3.846,0.11,5.77l-0.163,0.187l-2.46-0.11l-0.126-0.198
			c0.053-2.772-0.016-5.558,0-8.302c0.016-3.026,2.17-4.123,4.773-4.123c1.509,0,2.873,0.239,3.914,1.249
			c1.236,1.207,1.04,3.405,1.04,5.054C203.417-19.059,203.365-16.97,203.438-14.92"/>
		<path fill-rule="evenodd" clip-rule="evenodd" fill="#004F92" d="M213.082-26.99c-0.269,0.911-0.231,1.915-0.231,2.845
			c0,1.048,0.069,2.065,0.069,3.106c0,0.679,0.108,1.557-0.41,2.089c-0.38,0.382-0.969,0.585-1.547,0.585
			c-1.216,0-2.243-0.735-3.174-1.446c-0.053,0.622-0.09,0.841-0.325,1.317l-0.195,0.056l-2.334-0.349l-0.036-0.22
			c0.483-1.077,0.358-3.215,0.358-4.736c0-1.109,0.019-2.228-0.123-3.322l0.142-0.203l2.403,0.038l0.143,0.165
			c-0.032,1.188-0.032,2.375-0.049,3.562c-0.021,0.805-0.073,1.824,0.394,2.521c0.321,0.494,0.858,0.857,1.362,0.857
			c0.809,0,0.793-0.785,0.793-1.388c0-0.364-0.02-1.756-0.02-2.117l-0.017-1.484c0-0.654-0.127-1.551,0.231-2.155l2.438,0.038
			L213.082-26.99z"/>
		<path fill-rule="evenodd" clip-rule="evenodd" fill="#004F92" d="M217.553-15.36c0,0.821-0.679,1.517-1.508,1.517
			c-0.825,0-1.525-0.675-1.525-1.517c0-0.845,0.685-1.524,1.525-1.524C216.854-16.884,217.553-16.185,217.553-15.36 M217.517-26.99
			L217.517-26.99c-0.143,0.623-0.157,1.097-0.157,1.956v2.865c0,1.119,0.122,2.583-0.184,3.676l-0.2,0.056l-2.292-0.349
			l-0.037-0.215c0.231-1.082,0.143-2.249,0.143-3.351v-2.757c0-0.747-0.089-1.462,0.23-2.159l2.371,0.038L217.517-26.99z"/>
		<path fill-rule="evenodd" clip-rule="evenodd" fill="#004F92" d="M224.767-14.167l-0.143,0.162
			c-0.232,0.058-1.042,0.146-1.923,0.146c-1.615,0-2.782-0.915-2.782-2.581v-2.22l-1.271,0.04l-0.111-0.22
			c0.126-0.439,0.179-0.679,0.253-1.175l0.104-0.164l1.024,0.018c-0.016-1.752-0.016-4.053-0.016-4.053
			c0-0.79-0.146-2.542,0.232-3.054l2.354,0.038l0.141,0.239c-0.251,0.968-0.197,1.938-0.216,2.923l-0.035,3.906h1.902l0.142,0.146
			c0.058,0.477,0.09,0.699,0.164,1.155l-0.128,0.239l-2.08-0.04v1.449c0,1.407,0.646,1.795,1.255,1.795
			c0.358,0,0.61-0.074,0.773-0.11l0.163,0.093L224.767-14.167z"/>
		<path fill-rule="evenodd" clip-rule="evenodd" fill="#004F92" d="M233.051-22.946c0,2.696-1.577,4.581-4.268,4.581
			c-2.696,0-4.237-1.796-4.237-4.529c0-2.634,1.578-4.555,4.237-4.555C231.495-27.449,233.051-25.637,233.051-22.946
			 M230.344-23.312L230.344-23.312c0-1.537-0.521-2.69-1.493-2.69c-1.145,0-1.629,1.63-1.629,3.497c0,1.54,0.499,2.715,1.472,2.715
			C229.844-19.791,230.344-21.479,230.344-23.312"/>
		<path fill-rule="evenodd" clip-rule="evenodd" fill="#004F92" d="M240.197-18.66l-0.125,0.198
			c-0.196,0.061-0.358,0.078-0.554,0.078c-1.08,0-1.958-0.675-2.368-1.428c-0.057,0.622-0.09,0.842-0.327,1.317l-0.183,0.057
			l-2.361-0.35l-0.037-0.22c0.488-1.134,0.378-3.436,0.378-4.737c0-1.108,0-2.227-0.146-3.32l0.146-0.203l2.419,0.037l0.147,0.166
			c-0.022,1.203-0.036,2.354-0.036,3.561c0,1.387,0.014,2.085,0.268,2.541c0.251,0.438,0.752,0.802,1.45,0.802
			c0.2,0,0.504-0.069,0.703-0.2l0.18,0.053L240.197-18.66z"/>
		<path fill-rule="evenodd" clip-rule="evenodd" fill="#004F92" d="M254.11-26.99c-0.252,0.911-0.236,1.915-0.236,2.845
			c0,1.048,0.073,2.065,0.073,3.106c0,0.679,0.106,1.557-0.41,2.089c-0.378,0.382-0.972,0.585-1.546,0.585
			c-1.186,0-2.264-0.715-3.178-1.425c-0.199,0.967-0.915,1.425-1.899,1.425c-1.219,0-2.256-0.715-3.184-1.446
			c-0.053,0.622-0.089,0.841-0.324,1.317l-0.179,0.056l-2.362-0.349l-0.037-0.22c0.483-1.135,0.378-3.436,0.378-4.736
			c0-1.109,0-2.228-0.146-3.322l0.146-0.203l2.436,0.038l0.126,0.165c-0.016,0.842-0.037,1.79-0.037,2.704
			c0,0.985-0.178,2.485,0.38,3.342c0.316,0.496,0.816,0.896,1.37,0.896c0.909,0,0.767-0.896,0.767-2.354v-1.224
			c0-1.135,0.037-2.248-0.073-3.363l0.144-0.203l2.39,0.038l0.125,0.165c-0.019,0.915-0.035,1.826-0.035,2.741
			c0,0.987-0.183,2.484,0.377,3.343c0.322,0.494,0.88,0.857,1.384,0.857c0.693,0,0.788-0.545,0.788-1.351
			c0-1.568-0.036-3.126-0.053-4.695c0-0.512,0.032-0.731,0.248-1.098l2.444,0.038L254.11-26.99z"/>
		<path fill-rule="evenodd" clip-rule="evenodd" fill="#004F92" d="M262.965-22.779c0,2.471-0.951,4.414-3.731,4.414
			c-2.64,0-4.167-1.865-4.167-4.56c0-2.326,1.275-4.542,4.361-4.542c0.936,0,2.103,0.256,2.911,0.805l0.143,0.184l0.105,1.207
			l-0.143,0.131c-0.736-0.439-1.414-0.862-2.297-0.862c-1.581,0-2.313,1.283-2.423,2.894l5.114,0.111L262.965-22.779z
			 M260.469-21.678L260.469-21.678l-2.744-0.148c0,1.211,0.468,2.067,1.382,2.067C260.058-19.759,260.437-20.653,260.469-21.678"/>
		<path fill-rule="evenodd" clip-rule="evenodd" fill="#004F92" d="M134.213-37.427c0,2.162-0.806,4.326-2.729,4.326
			c-1.271,0-2.187-0.699-3.121-1.467c-0.037,0.585-0.106,0.861-0.321,1.337l-0.199,0.052l-2.334-0.346l-0.032-0.218
			c0.463-0.919,0.373-3.757,0.373-4.912v-2.016c0-0.765-0.073-3.204-0.073-4.799c0-0.527,0.059-0.751,0.342-1.134l2.354,0.042
			l0.123,0.231c-0.269,0.897-0.231,1.906-0.231,2.841v1.431c0.541-0.057,0.987-0.076,1.401-0.076
			C132.797-42.134,134.213-40.427,134.213-37.427 M131.594-37.572L131.594-37.572c0-1.724-0.54-3.261-2.029-3.261
			c-0.877,0-1.202,0.313-1.202,1.285v2.468c0,1.357,0.698,2.256,1.776,2.256C131.27-34.824,131.594-36.308,131.594-37.572"/>
		<path fill-rule="evenodd" clip-rule="evenodd" fill="#004F92" d="M142.863-41.748c-0.306,0.843-0.247,3.7-0.265,5.168
			c-0.02,1.207,0.018,1.809-0.163,2.305c-0.053,0.166-0.129,0.313-0.25,0.438c-0.521,0.59-1.562,0.752-2.713,0.752
			c-1.146,0-2.207-0.198-3.301-0.512l-0.146-0.167l-0.195-1.39l0.179-0.147c0.895,0.294,1.903,0.64,2.854,0.64
			c1.204,0,1.33-0.366,1.33-1.424v-0.316c-2.102-0.109-4.882-0.33-4.882-3.146c0-1.558,1.003-2.677,2.527-2.677
			c1.041,0,1.87,0.586,2.407,1.537c0-0.438,0-0.987,0.268-1.333l2.229,0.037L142.863-41.748z M140.229-39.438L140.229-39.438
			c-0.504-0.679-1.009-1.191-1.635-1.191c-0.593,0-0.971,0.528-0.971,1.15c0,1.488,1.492,1.688,2.605,1.781V-39.438z"/>
		<path fill-rule="evenodd" clip-rule="evenodd" fill="#004F92" d="M150.506-33.397l-0.125,0.203
			c-0.196,0.058-0.357,0.073-0.554,0.073c-1.081,0-1.96-0.679-2.37-1.427c-0.057,0.622-0.094,0.841-0.324,1.318l-0.184,0.051
			l-2.362-0.346l-0.036-0.219c0.483-1.133,0.378-3.439,0.378-4.735c0-1.114,0-2.229-0.144-3.321l0.144-0.203l2.419,0.036
			l0.146,0.167c-0.021,1.203-0.037,2.353-0.037,3.556c0,1.396,0.017,2.086,0.269,2.542c0.252,0.438,0.752,0.805,1.456,0.805
			c0.193,0,0.5-0.073,0.698-0.203l0.18,0.058L150.506-33.397z"/>
		<path fill-rule="evenodd" clip-rule="evenodd" fill="#004F92" d="M158.177-41.748c-0.304,0.843-0.251,3.7-0.268,5.168
			c-0.02,1.207,0.017,1.809-0.162,2.305c-0.053,0.166-0.126,0.313-0.252,0.438c-0.521,0.59-1.562,0.752-2.711,0.752
			c-1.148,0-2.208-0.198-3.302-0.512l-0.144-0.167l-0.199-1.39l0.18-0.147c0.898,0.294,1.902,0.64,2.857,0.64
			c1.199,0,1.325-0.366,1.325-1.424v-0.316c-2.101-0.109-4.882-0.33-4.882-3.146c0-1.558,1.004-2.677,2.533-2.677
			c1.041,0,1.864,0.586,2.401,1.537c0-0.438,0-0.987,0.273-1.333l2.224,0.037L158.177-41.748z M155.539-39.438L155.539-39.438
			c-0.504-0.679-1.004-1.191-1.635-1.191c-0.594,0-0.967,0.528-0.967,1.15c0,1.488,1.488,1.688,2.602,1.781V-39.438z"/>
		<path fill-rule="evenodd" clip-rule="evenodd" fill="#004F92" d="M183.506-37.678c0,2.687-1.582,4.577-4.273,4.577
			c-2.69,0-4.235-1.797-4.235-4.525c0-2.638,1.577-4.561,4.235-4.561C181.945-42.187,183.506-40.374,183.506-37.678 M180.794-38.048
			L180.794-38.048c0-1.537-0.521-2.691-1.488-2.691c-1.149,0-1.634,1.631-1.634,3.495c0,1.542,0.503,2.713,1.472,2.713
			C180.29-34.531,180.794-36.215,180.794-38.048"/>
		<path fill-rule="evenodd" clip-rule="evenodd" fill="#004F92" d="M192.633-41.728c-0.27,0.911-0.232,1.919-0.232,2.846
			c0,1.045,0.074,2.065,0.074,3.111c0,0.67,0.104,1.552-0.416,2.08c-0.377,0.387-0.967,0.59-1.544,0.59
			c-1.215,0-2.24-0.736-3.175-1.447c-0.055,0.622-0.09,0.841-0.325,1.317l-0.195,0.052l-2.334-0.345l-0.036-0.219
			c0.483-1.082,0.357-3.22,0.357-4.736c0-1.115,0.02-2.229-0.126-3.322l0.146-0.203l2.407,0.036l0.142,0.167
			c-0.035,1.184-0.035,2.371-0.053,3.558c-0.02,0.809-0.072,1.833,0.393,2.524c0.323,0.492,0.859,0.857,1.364,0.857
			c0.81,0,0.793-0.784,0.793-1.387c0-0.368-0.021-1.756-0.021-2.121l-0.016-1.477c0-0.657-0.127-1.557,0.231-2.158l2.438,0.036
			L192.633-41.728z"/>
		<path fill-rule="evenodd" clip-rule="evenodd" fill="#004F92" d="M199.471-40.427l-0.09,0.091
			c-0.451-0.237-0.951-0.351-1.508-0.351c-0.684,0-0.72,0.496-0.72,1.061v4.729l2.027-0.021l0.143,0.166
			c0.058,0.477,0.073,0.697,0.147,1.155l-0.11,0.24l-2.207-0.04v0.26c0,0.821,0.088,1.662,0.199,2.492l-0.146,0.069l-2.402-0.346
			l-0.074-0.152l-0.104-2.323l-1.277,0.04l-0.106-0.22c0.126-0.442,0.196-0.679,0.27-1.176l0.105-0.166l1.009,0.021v-5.329
			c0-1.521,0.789-1.888,2.276-1.888c0.824,0,1.813,0.11,2.191,0.204l0.178,0.142L199.471-40.427z"/>
		<path fill-rule="evenodd" clip-rule="evenodd" fill="#004F92" d="M206.395-33.397l-0.126,0.203
			c-0.2,0.058-0.358,0.073-0.558,0.073c-1.077,0-1.955-0.679-2.37-1.427c-0.054,0.622-0.089,0.841-0.325,1.318l-0.178,0.051
			l-2.362-0.346l-0.038-0.219c0.484-1.133,0.379-3.439,0.379-4.735c0-1.114,0-2.229-0.146-3.321l0.146-0.203l2.415,0.036
			l0.146,0.167c-0.017,1.203-0.037,2.353-0.037,3.556c0,1.396,0.021,2.086,0.268,2.542c0.253,0.438,0.756,0.805,1.456,0.805
			c0.195,0,0.499-0.073,0.699-0.203l0.18,0.058L206.395-33.397z"/>
		<path fill-rule="evenodd" clip-rule="evenodd" fill="#004F92" d="M214.184-41.748c-0.306,0.843-0.248,3.7-0.269,5.168
			c-0.016,1.207,0.021,1.809-0.163,2.305c-0.052,0.166-0.121,0.313-0.246,0.438c-0.522,0.59-1.563,0.752-2.713,0.752
			s-2.208-0.198-3.301-0.512l-0.146-0.167l-0.199-1.39l0.179-0.147c0.902,0.294,1.907,0.64,2.857,0.64
			c1.2,0,1.331-0.366,1.331-1.424v-0.316c-2.104-0.109-4.888-0.33-4.888-3.146c0-1.558,1.009-2.677,2.533-2.677
			c1.04,0,1.866,0.586,2.406,1.537c0-0.438,0-0.987,0.268-1.333l2.226,0.037L214.184-41.748z M211.55-39.438L211.55-39.438
			c-0.506-0.679-1.01-1.191-1.636-1.191c-0.594,0-0.971,0.528-0.971,1.15c0,1.488,1.487,1.688,2.606,1.781V-39.438z"/>
		<path fill-rule="evenodd" clip-rule="evenodd" fill="#004F92" d="M220.943-40.427l-0.089,0.091
			c-0.447-0.237-0.952-0.351-1.504-0.351c-0.684,0-0.72,0.496-0.72,1.061v4.729l2.029-0.021l0.141,0.166
			c0.054,0.477,0.075,0.697,0.143,1.155l-0.104,0.24l-2.209-0.04v0.26c0,0.821,0.089,1.662,0.195,2.492l-0.143,0.069l-2.407-0.346
			l-0.067-0.152l-0.11-2.323l-1.272,0.04l-0.11-0.22c0.13-0.442,0.2-0.679,0.269-1.176l0.109-0.166l1.005,0.021v-5.329
			c0-1.521,0.792-1.888,2.28-1.888c0.826,0,1.813,0.11,2.191,0.204l0.18,0.142L220.943-40.427z"/>
		<path fill-rule="evenodd" clip-rule="evenodd" fill="#004F92" d="M225.197-30.101c0,0.826-0.684,1.52-1.508,1.52
			c-0.826,0-1.525-0.678-1.525-1.52c0-0.841,0.683-1.52,1.525-1.52C224.498-31.62,225.197-30.921,225.197-30.101 M225.16-41.728
			L225.16-41.728c-0.143,0.622-0.159,1.094-0.159,1.952v2.87c0,1.117,0.123,2.578-0.183,3.675l-0.194,0.052l-2.298-0.345
			l-0.036-0.219c0.232-1.078,0.142-2.249,0.142-3.347v-2.757c0-0.751-0.089-1.463,0.236-2.158l2.366,0.036L225.16-41.728z"/>
		<path fill-rule="evenodd" clip-rule="evenodd" fill="#004F92" d="M233.129-39.495c0,2.984-3.948,2.528-3.948,4.013
			c0,0.605,0.683,0.878,1.257,0.878c0.61,0,1.187-0.147,1.76-0.402l0.18,0.036c0.198,0.439,0.305,0.644,0.557,1.025l-0.054,0.203
			c-0.971,0.418-1.901,0.642-2.943,0.642c-1.706,0-3.338-0.809-3.338-2.513c0-2.837,3.948-2.305,3.948-4.045
			c0-0.695-0.541-1.044-1.314-1.044c-0.698,0-1.486,0.275-2.295,0.805l-0.18-0.074c-0.126-0.438-0.232-0.674-0.41-1.041l0.105-0.207
			c1.004-0.638,2.266-0.967,3.248-0.967C231.571-42.187,233.129-41.272,233.129-39.495"/>
		<path fill-rule="evenodd" clip-rule="evenodd" fill="#004F92" d="M240.004-40.427l-0.091,0.091
			c-0.45-0.237-0.955-0.351-1.509-0.351c-0.682,0-0.718,0.496-0.718,1.061v4.729l2.027-0.021l0.143,0.166
			c0.057,0.477,0.073,0.697,0.147,1.155l-0.11,0.24l-2.207-0.04v0.26c0,0.821,0.089,1.662,0.198,2.492l-0.143,0.069l-2.406-0.346
			l-0.073-0.152l-0.106-2.323l-1.275,0.04l-0.106-0.22c0.127-0.442,0.196-0.679,0.269-1.176l0.11-0.166l1.003,0.021v-5.329
			c0-1.521,0.789-1.888,2.277-1.888c0.826,0,1.813,0.11,2.191,0.204l0.179,0.142L240.004-40.427z"/>
		<path fill-rule="evenodd" clip-rule="evenodd" fill="#004F92" d="M248.183-41.748c-0.306,0.843-0.252,3.7-0.268,5.168
			c-0.018,1.207,0.016,1.809-0.163,2.305c-0.053,0.166-0.126,0.313-0.251,0.438c-0.519,0.59-1.563,0.752-2.709,0.752
			c-1.15,0-2.207-0.198-3.301-0.512l-0.146-0.167l-0.199-1.39l0.179-0.147c0.898,0.294,1.906,0.64,2.858,0.64
			c1.203,0,1.325-0.366,1.325-1.424v-0.316c-2.098-0.109-4.882-0.33-4.882-3.146c0-1.558,1.007-2.677,2.532-2.677
			c1.041,0,1.865,0.586,2.402,1.537c0-0.438,0-0.987,0.272-1.333l2.224,0.037L248.183-41.748z M245.544-39.438L245.544-39.438
			c-0.5-0.679-1.003-1.191-1.634-1.191c-0.59,0-0.967,0.528-0.967,1.15c0,1.488,1.487,1.688,2.601,1.781V-39.438z"/>
		<path fill-rule="evenodd" clip-rule="evenodd" fill="#004F92" d="M255.626-39.495c0,2.984-3.947,2.528-3.947,4.013
			c0,0.605,0.684,0.878,1.257,0.878c0.609,0,1.183-0.147,1.761-0.402l0.179,0.036c0.194,0.439,0.305,0.644,0.557,1.025l-0.057,0.203
			c-0.968,0.418-1.902,0.642-2.943,0.642c-1.704,0-3.339-0.809-3.339-2.513c0-2.837,3.951-2.305,3.951-4.045
			c0-0.695-0.541-1.044-1.312-1.044c-0.7,0-1.488,0.275-2.298,0.805l-0.179-0.074c-0.127-0.438-0.235-0.674-0.414-1.041l0.109-0.207
			c1.004-0.638,2.261-0.967,3.248-0.967C254.064-42.187,255.626-41.272,255.626-39.495"/>
		<path fill-rule="evenodd" clip-rule="evenodd" fill="#004F92" d="M174.396-39.195l-0.175,0.09
			c-1.151-0.732-1.918-1.061-3.176-1.061c-2.098,0-3.691,1.829-3.691,4.525c0,2.698,1.898,4.19,3.891,4.19
			c1.089,0,1.72-0.268,2.688-0.761l0.194,0.069c0.095,0.606,0.143,0.912,0.232,1.512l-0.126,0.261
			c-1.163,0.671-2.13,0.892-3.509,0.892c-3.207,0-6.163-2.406-6.163-6.163c0-4.03,2.598-6.566,6.002-6.566
			c1.145,0,2.401,0.328,3.528,1.008l0.198,0.27L174.396-39.195z"/>
		<path fill-rule="evenodd" clip-rule="evenodd" fill="#004F92" d="M147.892,1.74c1.851-2.396,3.753-4.699,5.811-6.927l-0.436-1.253
			l-8.313-0.102l-0.785,0.456c-2.996,4.415-6.021,8.935-9.095,13.306l-0.865-0.021c0.032-4.289-0.045-8.578,0.203-12.865
			l-0.996-0.777l-6.943-0.102l-0.769,1.016c0.504,3.229,0.414,6.221,0.414,9.464c0,4.664-0.092,9.019-0.138,13.515
			c-0.053,2.521-0.146,5.045-0.195,7.565l0.753,0.903h14.297c4.68,0,10.404-2.547,10.404-9.184c0-2.464-1.069-4.867-2.813-6.537
			c-1.46-1.403-3.195-2.106-5.058-2.463C144.875,5.728,146.359,3.719,147.892,1.74 M140.448,13.176L140.448,13.176
			c1.391,0.5,2.286,1.415,2.286,3.374c0,2.456-1.484,3.671-4.978,3.671c-1.517,0-2.854-0.071-3.602-0.126v-2.544v-4.944h0.524
			C136.892,12.607,138.945,12.639,140.448,13.176"/>
		<path fill-rule="evenodd" clip-rule="evenodd" fill="#004F92" d="M180.217,26.194l0.797-1.013
			c-0.195-5.217-0.057-10.367-0.057-15.582c0-4.237,0.541-9.818-2.969-13.043c-2.947-2.683-6.769-3.272-10.798-3.272
			c-7.028,0-13.245,2.842-13.294,10.903c-0.049,6.941,0.139,13.852-0.004,20.781l0.647,0.981l7.171,0.302l0.85-0.908
			c-0.289-4.873-0.298-9.688-0.298-14.562c0-2.31-0.227-5.598,0.448-7.798c0.577-1.878,1.816-3.143,4.951-3.143
			c6.489,0,5.403,6.603,5.403,11.029v1.455c0,4.273-0.102,8.526-0.346,12.795l0.74,0.971L180.217,26.194z"/>
		<path fill-rule="evenodd" clip-rule="evenodd" fill="#004F92" d="M210.598,2.073l-0.094-0.058
			c-2.976-1.824-4.87-2.637-8.221-2.637c-5.69,0-9.517,4.35-9.517,10.825c0,5.692,4.212,9.981,9.793,9.981
			c2.847,0,4.652-0.805,7.156-1.924l0.244-0.109l0.734,0.27l0.021,0.141c0.109,0.772,0.179,1.313,0.235,1.803
			c0.094,0.742,0.176,1.385,0.37,2.549l0.017,0.08l-0.448,0.784l-0.052,0.03c-2.793,1.686-5.973,2.471-10.01,2.471
			c-9.772,0-16.872-6.762-16.872-16.075c0-10.419,6.462-17.152,16.449-17.152c3.802,0,7.205,0.943,10.111,2.806l0.618,0.816
			l0.296,5.123L210.598,2.073z"/>
		<path fill-rule="evenodd" clip-rule="evenodd" fill="#E6B500" d="M70.169,32.865c8.647,7.443,21.408,8.677,31.472,2.357
			l2.585,3.834l3.333-12.866l-13.18-1.733l2.566,3.805c-6.758,4.104-15.226,3.307-21.081-1.547l-0.967,7.375L70.169,32.865z
			 M104.156-8.116c-9.196-7.375-22.482-7.927-32.34-0.728l-2.851-3.647L66.538,0.584L79.809,1.39l-2.825-3.618
			c6.634-4.688,15.435-4.342,21.647,0.45l0.708-7.406L104.156-8.116z"/>
		<path fill-rule="evenodd" clip-rule="evenodd" fill="#D89000" d="M66.128-3.174c-6.362,8.582-7.14,20.488-1.184,29.982
			l-3.833,2.584l12.867,3.334l1.731-13.181l-3.805,2.571c-3.87-6.379-3.375-14.287,0.772-20.071l-7.437-0.448L66.128-3.174z
			 M107.682,30.056c7.708-8.933,8.716-22.197,1.861-32.309l3.744-2.723l-12.981-2.88L99.038,5.378l3.717-2.699
			c4.454,6.793,3.8,15.578-1.213,21.629l7.38,0.963L107.682,30.056z"/>
		<path fill-rule="evenodd" clip-rule="evenodd" fill="#004F92" d="M223.924,26.279c1.398,0,2.77-0.357,4.106-1.073
			c1.333-0.724,2.374-1.752,3.118-3.094c0.745-1.333,1.118-2.731,1.118-4.187c0-1.439-0.366-2.822-1.103-4.148
			c-0.73-1.328-1.764-2.361-3.085-3.094c-1.325-0.739-2.711-1.105-4.155-1.105c-1.446,0-2.833,0.366-4.154,1.105
			c-1.33,0.732-2.359,1.766-3.099,3.094c-0.739,1.326-1.105,2.709-1.105,4.148c0,1.455,0.374,2.854,1.122,4.187
			c0.749,1.342,1.793,2.37,3.127,3.094C221.146,25.921,222.522,26.279,223.924,26.279 M223.924,24.897
			c-1.175,0-2.316-0.302-3.427-0.902c-1.114-0.603-1.979-1.464-2.605-2.578c-0.631-1.118-0.943-2.28-0.943-3.491
			c0-1.205,0.31-2.354,0.927-3.457c0.613-1.104,1.476-1.963,2.581-2.58c1.11-0.619,2.262-0.928,3.468-0.928
			c1.2,0,2.358,0.309,3.465,0.928c1.104,0.617,1.963,1.476,2.572,2.58c0.613,1.104,0.92,2.252,0.92,3.457
			c0,1.211-0.31,2.373-0.933,3.491c-0.626,1.114-1.491,1.976-2.609,2.578C226.226,24.595,225.086,24.897,223.924,24.897
			 M220.258,13.31h1.451v3.816h0.85c0.512,0,0.898-0.1,1.162-0.308c0.386-0.28,0.891-0.979,1.517-2.09l0.796-1.419h1.773
			l-1.098,1.756c-0.524,0.838-0.968,1.432-1.329,1.785c-0.188,0.183-0.443,0.346-0.761,0.476c0.773,0.062,1.399,0.333,1.863,0.822
			c0.471,0.487,0.706,1.056,0.706,1.715c0,0.464-0.142,0.901-0.422,1.315c-0.284,0.412-0.655,0.705-1.13,0.871
			c-0.474,0.164-1.233,0.244-2.293,0.244h-3.086V13.31z M221.709,18.367h1.76c0.842,0,1.415,0.127,1.72,0.376
			c0.305,0.251,0.46,0.584,0.46,0.999c0,0.266-0.074,0.5-0.224,0.716c-0.146,0.207-0.351,0.365-0.609,0.468
			c-0.266,0.105-0.749,0.154-1.46,0.154h-1.646V18.367z"/>
	</g>
	<g>
		<path fill-rule="evenodd" clip-rule="evenodd" fill="#004F92" d="M-122.832-21.778c2.789,0,4.423-1.951,4.423-4.727
			c0-2.781-1.618-4.655-4.423-4.655c-2.753,0-4.387,1.988-4.387,4.712C-127.219-23.631-125.621-21.778-122.832-21.778
			 M-46.552-18.683v0.049v0.026v0.01l-0.005,0.033c-0.061,0.797-0.738,1.45-1.557,1.45c-0.853,0-1.576-0.698-1.576-1.568
			c0-0.151,0.019-0.297,0.06-0.432c-0.041,0.139-0.065,0.285-0.065,0.438c0,0.87,0.729,1.57,1.582,1.57
			c0.818,0,1.502-0.658,1.557-1.459c-0.055,0.801-0.738,1.459-1.557,1.459c-0.853,0-1.582-0.7-1.582-1.57
			c0-0.153,0.024-0.3,0.065-0.438l0.009-0.028l0.004-0.012l0.008-0.024c0.207-0.626,0.801-1.077,1.496-1.077
			C-47.275-20.256-46.552-19.534-46.552-18.683 M-128.93-23.842v-8.111c0-0.589-0.021-0.853-0.057-1.23
			c-0.244-2.005-2.01-2.838-3.83-2.744l-0.188,0.076l-0.297,1.001l0.038,0.19c1.987,0.627,1.726,2.646,1.71,4.236v4.52
			c0,1.139,0.054,2.347-0.186,3.464l0.057,0.228l2.357,0.357l0.188-0.057C-128.93-22.647-128.93-23.273-128.93-23.842
			 M-138.826-26.679c0.11-1.664,0.875-2.989,2.51-2.989c0.91,0,1.617,0.439,2.381,0.891l0.147-0.134l-0.11-1.248l-0.149-0.188
			c-0.839-0.57-2.045-0.834-3.015-0.834c-3.193,0-4.516,2.289-4.516,4.692c0,2.78,1.582,4.71,4.313,4.71
			c2.884,0,3.867-2.008,3.867-4.557l-0.129-0.227L-138.826-26.679z M-151.7-33.721c1.358,0,2.601-0.248,3.851-0.834l0.016-0.17
			c-0.204-0.378-0.65-1.285-0.838-1.7l-0.146-0.04c-0.594,0.357-1.58,0.736-2.492,0.736c-1.15,0-2.154-0.244-2.154-1.303
			c0-2.138,5.984-2.028,5.984-6.149c0-2.554-2.024-3.803-4.61-3.803c-1.468,0-2.752,0.321-4.089,0.965l-0.037,0.15
			c0.188,0.625,0.297,1.117,0.426,1.801l0.152,0.094c1.023-0.57,2.044-1.021,3.121-1.021c1.17,0,2.248,0.451,2.248,1.57
			c0,2.438-5.797,2.061-5.797,6.203C-156.066-34.839-154.079-33.721-151.7-33.721 M-166.328-37.62c2.883,0,3.867-2.004,3.867-4.557
			l-0.127-0.229l-5.301-0.113c0.113-1.667,0.873-2.988,2.512-2.988c0.91,0,1.615,0.435,2.378,0.891l0.146-0.135l-0.107-1.247
			l-0.146-0.191c-0.838-0.565-2.049-0.83-3.014-0.83c-3.199,0-4.516,2.289-4.516,4.692C-170.637-39.55-169.061-37.62-166.328-37.62
			 M-172.365-36.864v-6.658c0-1-0.074-2.041,0.188-3.024l-0.147-0.248l-2.418-0.037c-0.224,0.472-0.239,0.74-0.239,1.402
			c-0.985-0.796-1.916-1.517-3.258-1.517c-1.988,0-2.822,2.232-2.822,4.464c0,3.103,1.469,4.862,4.59,4.862
			c0.429,0,0.932-0.036,1.49-0.093v2.268c0,0.7-0.058,1.289-0.168,1.855l0.053,0.227l2.363,0.361l0.187-0.04
			C-172.289-33.798-172.365-35.933-172.365-36.864 M-109.07-24.293c0-2.801,1.654-4.692,3.829-4.692
			c1.302,0,2.103,0.343,3.289,1.099l0.187-0.099l-0.113-1.796l-0.204-0.28c-1.17-0.7-2.471-1.041-3.658-1.041
			c-3.532,0-6.229,2.63-6.229,6.809c0,3.895,3.065,6.395,6.395,6.395c1.431,0,2.437-0.228,3.644-0.927l0.131-0.265
			c-0.094-0.626-0.151-0.947-0.244-1.573l-0.204-0.073c-1.004,0.513-1.653,0.793-2.789,0.793
			C-107.102-19.944-109.07-21.493-109.07-24.293 M-142.001-37.62c2.883,0,3.867-2.004,3.867-4.557l-0.132-0.229l-5.297-0.113
			c0.115-1.667,0.875-2.988,2.509-2.988c0.915,0,1.618,0.435,2.383,0.891l0.147-0.135l-0.11-1.247l-0.151-0.191
			c-0.833-0.565-2.045-0.83-3.009-0.83c-3.199,0-4.521,2.289-4.521,4.692C-146.314-39.55-144.732-37.62-142.001-37.62
			 M-81.561-21.778c2.793,0,4.428-1.951,4.428-4.727c0-2.781-1.617-4.655-4.428-4.655c-2.748,0-4.381,1.988-4.381,4.712
			C-85.941-23.631-84.344-21.778-81.561-21.778 M-87.654-21.017v-6.65c0-1.001-0.056-2.018,0.184-3.021l-0.131-0.243l-2.435-0.041
			c-0.333,0.72-0.239,1.455-0.239,2.232v7.536c0,1.155,0.072,2.322-0.168,3.456l0.058,0.228l2.358,0.357l0.187-0.036
			C-87.58-18.029-87.654-19.862-87.654-21.017 M-92.004-26.505c0-2.781-1.618-4.655-4.423-4.655c-2.753,0-4.392,1.988-4.392,4.712
			c0,2.817,1.603,4.67,4.392,4.67C-93.639-21.778-92.004-23.729-92.004-26.505 M-109.712-38.055l2.373,0.356l0.208-0.052
			c0.316-1.134,0.188-2.646,0.188-3.797v-2.964c0-0.887,0.016-1.378,0.166-2.017l-0.131-0.248l-2.455-0.036
			c-0.334,0.716-0.24,1.45-0.24,2.228v2.85c0,1.131,0.095,2.342-0.149,3.456L-109.712-38.055z M-110.794-37.92l-0.467-1.704
			l-0.183-0.057c-0.209,0.134-0.521,0.207-0.729,0.207c-0.725,0-1.245-0.378-1.504-0.829c-0.26-0.473-0.282-1.188-0.282-2.622
			c0-1.245,0.022-2.437,0.041-3.68l-0.149-0.171l-2.504-0.036l-0.15,0.207c0.146,1.131,0.15,2.28,0.146,3.435
			c0,1.339,0.114,3.717-0.39,4.887l0.039,0.229l2.449,0.356l0.185-0.052c0.242-0.497,0.278-0.719,0.334-1.362
			c0.433,0.777,1.343,1.477,2.457,1.477c0.203,0,0.37-0.021,0.573-0.077L-110.794-37.92z M-119.551-37.75
			c0.613-1.232,0.337-4.146,0.337-5.639c0-1.061-0.036-2.139,0.239-3.158l-0.129-0.248l-2.448-0.037
			c-0.39,0.492-0.353,0.792-0.353,1.402c-0.951-0.76-2.009-1.5-3.293-1.5c-0.578,0-1.188,0.211-1.562,0.61
			c-0.429,0.451-0.464,1.098-0.464,1.927c0,1.401,0.074,2.801,0.074,4.199c0,0.927,0,1.305-0.261,1.91l0.036,0.229l2.492,0.362
			l0.166-0.078c0.168-0.397,0.24-0.606,0.24-1.076c-0.016-1.59-0.053-3.181-0.053-4.77c0-0.963,0.073-1.492,0.817-1.492
			c0.931,0,1.694,0.943,1.784,1.833c0.074,0.663,0.057,1.606,0.057,2.307c0,0.852,0.057,1.894-0.238,2.686l0.037,0.229l2.316,0.362
			L-119.551-37.75z M-128.264-48.081c0-2.438-2.158-3.801-4.871-3.801c-2.08,0-3.846,0.659-3.846,2.42
			c0,0.963,0.651,1.724,1.636,2.594c-0.896,0.13-1.415,0.491-1.415,1.228c0,0.87,0.951,1.683,1.529,2.252
			c-1.082,0.699-1.529,1.438-1.529,2.61c0,2.158,1.435,3.158,3.72,3.158c1.171,0,2.325-0.284,3.496-0.284
			c0.442,0,0.739,0.021,1.26,0.113l0.058-0.207c-0.184-0.398-0.297-0.585-0.483-1.004l-0.188-0.093l-0.983,0.077
			c0.558-0.587,0.802-1.155,0.802-1.911c0-1.761-1.451-3.236-3.311-3.236c-0.405,0-0.872,0.077-1.357,0.191
			c-0.129-0.136-0.707-0.721-0.707-0.932c0-0.223,0.223-0.203,0.614-0.26l2.899-0.398
			C-129.455-45.771-128.264-46.418-128.264-48.081 M-108.302-32.944c0.854,0,1.56-0.72,1.56-1.573c0-0.85-0.723-1.57-1.56-1.57
			c-0.874,0-1.582,0.7-1.582,1.57S-109.156-32.944-108.302-32.944 M-57.5-17.2c0.165-0.533,0.188-1.853,0.188-3.217v-2.877
			c0.779,0.626,1.781,1.516,3.252,1.516c1.968,0,2.826-2.23,2.826-4.464c0-3.122-1.469-4.861-4.631-4.861
			c-1.339,0-2.639,0.223-3.939,0.549l-0.057,0.149c-0.054,2.497-0.037,8.342-0.074,10.802c-0.021,0.85-0.037,1.435-0.131,1.854
			l0.037,0.228l2.362,0.357L-57.5-17.2z M-64.102-21.778c0.593,0,1.207-0.206,1.597-0.605c0.541-0.549,0.427-1.455,0.427-2.154
			c0-1.073-0.072-2.129-0.072-3.208c0-0.964-0.021-2,0.242-2.943l-0.134-0.243l-2.524-0.041c-0.224,0.378-0.265,0.604-0.265,1.135
			c0.021,1.622,0.058,3.223,0.058,4.844c0,0.833-0.094,1.399-0.816,1.399c-0.52,0-1.098-0.378-1.432-0.887
			c-0.578-0.886-0.391-2.435-0.391-3.45c0-0.944,0.021-1.892,0.036-2.831l-0.128-0.17l-2.473-0.041l-0.147,0.211
			c0.111,1.151,0.073,2.301,0.073,3.472v1.259c0,1.513,0.146,2.437-0.797,2.437c-0.569,0-1.09-0.414-1.418-0.924
			c-0.577-0.89-0.391-2.434-0.391-3.451c0-0.947,0.021-1.926,0.036-2.793l-0.129-0.17l-2.521-0.041l-0.151,0.211
			c0.151,1.131,0.151,2.281,0.151,3.432c0,1.341,0.108,3.718-0.396,4.89l0.038,0.228l2.446,0.357l0.188-0.057
			c0.244-0.492,0.28-0.715,0.337-1.361c0.965,0.756,2.032,1.495,3.293,1.495c1.021,0,1.764-0.476,1.973-1.476
			C-66.443-22.517-65.33-21.778-64.102-21.778 M-90.536-37.599c1.187,0,2.269-0.172,2.806-0.778c0.129-0.133,0.207-0.284,0.26-0.45
			c0.188-0.512,0.15-1.138,0.167-2.387c0.021-1.513-0.037-4.463,0.28-5.333l-0.131-0.248l-2.304-0.037
			c-0.28,0.358-0.28,0.927-0.28,1.383c-0.558-0.984-1.41-1.591-2.49-1.591c-1.58,0-2.621,1.151-2.621,2.761
			c0,2.915,2.883,3.139,5.054,3.256v0.321c0,1.098-0.126,1.473-1.375,1.473c-0.983,0-2.024-0.357-2.951-0.658l-0.187,0.149
			l0.203,1.44l0.15,0.166C-92.825-37.807-91.729-37.599-90.536-37.599 M-96.48-36.864v-6.658c0-1-0.078-2.041,0.184-3.024
			l-0.146-0.248l-2.418-0.037c-0.22,0.472-0.24,0.74-0.24,1.402c-0.984-0.796-1.916-1.517-3.252-1.517
			c-1.988,0-2.826,2.232-2.826,4.464c0,3.103,1.469,4.862,4.59,4.862c0.427,0,0.931-0.036,1.488-0.093v2.268
			c0,0.7-0.058,1.289-0.168,1.855l0.059,0.227l2.357,0.361l0.187-0.04C-96.406-33.798-96.48-35.933-96.48-36.864 M-76.84-36.864
			v-6.658c0-1-0.078-2.041,0.184-3.024l-0.147-0.248l-2.419-0.037c-0.223,0.472-0.239,0.74-0.239,1.402
			c-0.983-0.796-1.915-1.517-3.253-1.517c-1.987,0-2.825,2.232-2.825,4.464c0,3.103,1.47,4.862,4.59,4.862
			c0.429,0,0.931-0.036,1.488-0.093v2.268c0,0.7-0.058,1.289-0.166,1.855l0.052,0.227l2.362,0.361l0.188-0.04
			C-76.766-33.798-76.84-35.933-76.84-36.864 M-153.182-21.778c0.599,0,1.213-0.206,1.603-0.605
			c0.537-0.549,0.427-1.455,0.427-2.154c0-1.073-0.072-2.129-0.072-3.208c0-0.964-0.037-2,0.24-2.943l-0.131-0.243l-2.529-0.041
			c-0.371,0.626-0.239,1.549-0.239,2.228l0.016,1.529c0,0.378,0.021,1.808,0.021,2.19c0,0.618,0.017,1.432-0.817,1.432
			c-0.521,0-1.081-0.378-1.415-0.887c-0.482-0.716-0.427-1.772-0.404-2.606c0.015-1.223,0.015-2.45,0.051-3.675l-0.146-0.17
			l-2.491-0.041l-0.152,0.211c0.152,1.131,0.131,2.281,0.131,3.432c0,1.565,0.135,3.773-0.37,4.89l0.036,0.228l2.416,0.357
			l0.206-0.057c0.241-0.492,0.278-0.715,0.334-1.361C-155.501-22.539-154.445-21.778-153.182-21.778 M-165.337-21.778
			c2.79,0,4.428-1.951,4.428-4.727c0-2.781-1.618-4.655-4.428-4.655c-2.748,0-4.388,1.988-4.388,4.712
			C-169.725-23.631-168.126-21.778-165.337-21.778 M-170.857-27.887l0.184-0.099l-0.11-1.796l-0.202-0.28
			c-1.172-0.7-2.473-1.041-3.664-1.041c-3.533,0-6.225,2.63-6.225,6.809c0,3.895,3.064,6.395,6.393,6.395
			c1.431,0,2.435-0.228,3.646-0.927l0.127-0.265c-0.09-0.626-0.147-0.947-0.241-1.573l-0.207-0.073c-1,0.513-1.65,0.793-2.785,0.793
			c-2.063,0-4.033-1.549-4.033-4.35c0-2.801,1.651-4.692,3.83-4.692C-172.85-28.985-172.048-28.643-170.857-27.887 M-146.725-24.237
			c0-1.533,4.09-1.061,4.09-4.142c0-1.834-1.618-2.781-3.553-2.781c-1.021,0-2.321,0.342-3.362,1.001l-0.115,0.206
			c0.188,0.383,0.302,0.627,0.429,1.082l0.188,0.073c0.836-0.549,1.652-0.829,2.378-0.829c0.8,0,1.356,0.358,1.356,1.073
			c0,1.801-4.09,1.252-4.09,4.187c0,1.756,1.692,2.589,3.461,2.589c1.078,0,2.041-0.227,3.045-0.662l0.057-0.207
			c-0.26-0.398-0.37-0.606-0.577-1.062l-0.185-0.037c-0.592,0.265-1.189,0.416-1.82,0.416
			C-146.021-23.33-146.725-23.612-146.725-24.237 M-130.329-17.106c0.858,0,1.582-0.719,1.582-1.57c0-0.848-0.724-1.573-1.562-1.573
			c-0.875,0-1.582,0.703-1.582,1.573C-131.891-17.825-131.184-17.106-130.329-17.106 M-37.998-22.533
			c0.13-0.135,0.203-0.285,0.262-0.456c0.185-0.513,0.148-1.135,0.166-2.383c0.019-1.51-0.037-4.466,0.279-5.336l-0.13-0.245
			l-2.306-0.04c-0.275,0.361-0.275,0.932-0.275,1.383c-0.561-0.984-1.416-1.59-2.493-1.59c-1.581,0-2.62,1.154-2.62,2.764
			c0,2.916,2.881,3.139,5.057,3.252v0.32c0,1.099-0.131,1.477-1.379,1.477c-0.984,0-2.025-0.358-2.955-0.658l-0.184,0.149
			l0.202,1.437l0.151,0.17c1.13,0.321,2.232,0.533,3.419,0.533C-39.613-21.756-38.535-21.931-37.998-22.533 M-46.754-28.668
			c0-0.886,0.016-1.378,0.166-2.021l-0.131-0.243l-2.455-0.041c-0.333,0.72-0.24,1.455-0.24,2.228v2.85
			c0,1.135,0.094,2.341-0.15,3.455l0.037,0.228l2.381,0.357l0.205-0.057c0.316-1.134,0.188-2.643,0.188-3.793V-28.668z
			 M-46.557-18.565l0.005-0.033v-0.01v-0.026L-46.557-18.565z M-49.609-19.179l-0.008,0.024l-0.004,0.012l-0.009,0.028
			L-49.609-19.179z M-21.191-21.778c2.789,0,4.426-1.951,4.426-4.727c0-2.781-1.616-4.655-4.426-4.655
			c-2.748,0-4.383,1.988-4.383,4.712C-25.574-23.631-23.977-21.778-21.191-21.778 M-27.346-27.745c0-0.964-0.037-2,0.242-2.943
			l-0.129-0.243l-2.529-0.041c-0.369,0.626-0.24,1.549-0.24,2.228l0.018,1.529c0,0.378,0.02,1.808,0.02,2.19
			c0,0.618,0.018,1.432-0.816,1.432c-0.521,0-1.082-0.378-1.416-0.887c-0.484-0.716-0.427-1.772-0.41-2.606
			c0.021-1.223,0.021-2.45,0.057-3.675l-0.145-0.17l-2.494-0.041l-0.15,0.211c0.15,1.131,0.13,2.281,0.13,3.432
			c0,1.565,0.135,3.773-0.37,4.89l0.037,0.228l2.415,0.357l0.207-0.057c0.239-0.492,0.276-0.715,0.334-1.361
			c0.968,0.734,2.024,1.495,3.289,1.495c0.597,0,1.211-0.206,1.603-0.605c0.535-0.549,0.426-1.455,0.426-2.154
			C-27.27-25.611-27.346-26.667-27.346-27.745 M-175.004-42.839v2.552c0,0.984-0.333,1.325-1.244,1.325
			c-1.54,0-2.102-1.589-2.102-3.365c0-1.31,0.318-2.838,1.504-2.838C-175.877-45.165-175.004-44.393-175.004-42.839
			 M-165.043-41.043L-165.043-41.043c-0.038,1.057-0.427,1.983-1.416,1.983c-0.945,0-1.43-0.885-1.43-2.134L-165.043-41.043z
			 M-79.482-42.839v2.552c0,0.984-0.332,1.325-1.244,1.325c-1.541,0-2.098-1.589-2.098-3.365c0-1.31,0.314-2.838,1.504-2.838
			C-80.355-45.165-79.482-44.393-79.482-42.839 M-89.755-44.165v1.796c-1.155-0.093-2.696-0.3-2.696-1.833
			c0-0.642,0.391-1.19,1.006-1.19C-90.796-45.393-90.275-44.864-89.755-44.165 M-99.118-42.839v2.552
			c0,0.984-0.338,1.325-1.248,1.325c-1.54,0-2.098-1.589-2.098-3.365c0-1.31,0.313-2.838,1.504-2.838
			C-99.996-45.165-99.118-44.393-99.118-42.839 M-130.755-48.572L-130.755-48.572c0,1.325-1.433,1.361-2.489,1.435
			c-0.744-0.752-1.3-1.378-1.3-2.154c0-0.813,0.687-1.268,1.521-1.268C-131.85-50.56-130.755-49.706-130.755-48.572
			 M-140.716-41.043L-140.716-41.043c-0.036,1.057-0.427,1.983-1.414,1.983c-0.947,0-1.433-0.885-1.433-2.134L-140.716-41.043z
			 M-163.718-26.882L-163.718-26.882c0,1.888-0.521,3.628-1.712,3.628c-1.006,0-1.524-1.211-1.524-2.801
			c0-1.931,0.505-3.614,1.695-3.614C-164.255-29.668-163.718-28.473-163.718-26.882 M-135.98-25.201L-135.98-25.201
			c-0.035,1.058-0.426,1.984-1.414,1.984c-0.947,0-1.432-0.89-1.432-2.139L-135.98-25.201z M-121.214-26.882L-121.214-26.882
			c0,1.888-0.521,3.628-1.711,3.628c-1,0-1.522-1.211-1.522-2.801c0-1.931,0.502-3.614,1.688-3.614
			C-121.755-29.668-121.214-28.473-121.214-26.882 M-94.809-26.882L-94.809-26.882c0,1.888-0.521,3.628-1.711,3.628
			c-1.006,0-1.524-1.211-1.524-2.801c0-1.931,0.5-3.614,1.69-3.614C-95.35-29.668-94.809-28.473-94.809-26.882 M-79.938-26.882
			L-79.938-26.882c0,1.888-0.521,3.628-1.711,3.628c-1.004,0-1.524-1.211-1.524-2.801c0-1.931,0.5-3.614,1.69-3.614
			C-80.479-29.668-79.938-28.473-79.938-26.882 M-19.574-26.882L-19.574-26.882c0,1.888-0.52,3.628-1.707,3.628
			c-1.004,0-1.525-1.211-1.525-2.801c0-1.931,0.502-3.614,1.691-3.614C-20.109-29.668-19.574-28.473-19.574-26.882 M-40.023-28.326
			v1.801c-1.149-0.098-2.695-0.306-2.695-1.833c0-0.646,0.391-1.195,1.006-1.195C-41.064-29.554-40.543-29.021-40.023-28.326
			 M-53.968-26.396L-53.968-26.396c0,1.305-0.317,2.838-1.509,2.838c-1.004,0-1.836-0.777-1.836-2.347v-2.533
			c0-1.005,0.35-1.325,1.259-1.325C-54.508-29.762-53.968-28.155-53.968-26.396 M-132.918-38.962c-0.736,0-1.329-0.87-1.329-1.939
			c0-1.068,0.593-1.938,1.329-1.938c0.73,0,1.33,0.869,1.33,1.938C-131.588-39.832-132.188-38.962-132.918-38.962"/>
		<path fill-rule="evenodd" clip-rule="evenodd" fill="#004F92" d="M-106.322,25.955c3.367,0,6.891-0.764,10.777-2.341l0.094-0.041
			l0.28-0.699l-0.052-0.102c-0.87-1.618-1.104-2.127-1.672-3.358l-0.536-1.159l-0.667-0.332l-0.106,0.041
			c-2.179,0.838-4.536,1.613-6.979,1.613c-2.213,0-4.846-0.447-4.846-2.574c0-2.121,2.66-3.378,5.739-4.833
			c4.448-2.102,9.985-4.721,9.985-11.237c0-6.38-4.973-10.188-13.303-10.188c-3.293,0-7.032,0.788-11.119,2.341l-0.121,0.045
			l-0.143,0.635l0.017,0.057c0.55,2.151,0.692,2.817,1.081,5.123l0.025,0.118l0.653,0.365l0.114-0.049
			c3.05-1.383,5.639-2.306,8.355-2.306c3.373,0,5.391,1.22,5.391,3.267c0,2.264-2.619,3.506-5.648,4.941
			c-4.293,2.038-9.634,4.57-9.634,11.23C-118.636,22.158-113.689,25.955-106.322,25.955 M-122.523,0.303l0.099,0.061l0.881-0.297
			l-0.312-5.403l-0.654-0.866c-3.066-1.96-6.66-2.955-10.668-2.955c-10.542,0-17.355,7.105-17.355,18.104
			c0,9.824,7.484,16.961,17.801,16.961c4.258,0,7.611-0.83,10.563-2.607l0.059-0.031l0.467-0.826l-0.012-0.088
			c-0.213-1.229-0.293-1.904-0.392-2.688c-0.063-0.516-0.134-1.09-0.251-1.905l-0.021-0.147l-0.775-0.28l-0.262,0.113
			c-2.639,1.179-4.545,2.033-7.545,2.033c-5.892,0-10.338-4.529-10.338-10.533c0-6.834,4.037-11.426,10.043-11.426
			C-127.662-2.48-125.662-1.621-122.523,0.303 M-153.091,0.303l0.103,0.061l0.881-0.297l-0.313-5.403l-0.654-0.866
			c-3.07-1.96-6.66-2.955-10.668-2.955c-10.541,0-17.359,7.105-17.359,18.104c0,9.824,7.49,16.961,17.806,16.961
			c4.257,0,7.61-0.83,10.562-2.607l0.054-0.031l0.476-0.826l-0.016-0.088c-0.212-1.229-0.293-1.904-0.391-2.688
			c-0.064-0.516-0.135-1.09-0.252-1.905l-0.021-0.147l-0.776-0.28l-0.261,0.113c-2.64,1.179-4.545,2.033-7.545,2.033
			c-5.892,0-10.338-4.529-10.338-10.533c0-6.834,4.037-11.426,10.042-11.426C-158.227-2.48-156.227-1.621-153.091,0.303"/>
		<path fill-rule="evenodd" clip-rule="evenodd" fill="#329542" d="M-187.298,40.571c0.167-3.753,0.065-9.831-1.468-16.896
			c-3.065-14.123-11.619-30.067-27.6-33.633l-0.07-0.018c-0.551-0.117-1.113-0.219-1.683-0.309l-0.219-0.036
			c-2.358-0.341-4.858-0.379-7.501-0.073l4.854,12.501c7.94,0.139,15.771,3.618,21.156,10.204c2.249,2.744,3.879,5.794,4.9,8.97
			c0.527,0.544,1.031,1.112,1.438,1.593C-189.229,28.077-187.209,34.355-187.298,40.571 M-255.271-4.844
			c3.598,11.185,14.233,18.965,26.055,19.168l4.852,12.501c-2.644,0.307-5.144,0.27-7.502-0.077l-0.22-0.032
			c-0.567-0.088-1.131-0.19-1.683-0.309l-0.069-0.018c-15.981-3.564-24.532-19.508-27.597-33.633
			c-1.537-7.064-1.637-13.143-1.471-16.896c-0.091,6.216,1.93,12.493,6.195,17.701c0.289,0.354,0.59,0.694,0.891,1.033l0.008,0.003
			l0.004,0.005l0.041,0.044l0.012,0.012C-255.552-5.118-255.271-4.844-255.271-4.844"/>
		<path fill-rule="evenodd" clip-rule="evenodd" fill="#A1BC31" d="M-256.675-6.438c5.883,7.184,14.669,10.676,23.341,10.151
			l-4.961-12.773c-1.04-0.086-2.077-0.237-3.105-0.436c-5.236-0.739-10.803-3.073-15.506-8.842c-0.24-0.276-0.484-0.55-0.72-0.834
			c-2.248-2.748-3.875-5.793-4.899-8.968c-0.023,0.163-0.041,0.33-0.064,0.492c-0.077,0.626-0.203,1.833-0.281,3.508
			C-262.959-17.923-260.936-11.646-256.675-6.438 M-187.334,40.571c0.089-6.216-1.932-12.494-6.195-17.697
			c-5.884-7.188-14.668-10.676-23.34-10.156l4.959,12.773c1.041,0.085,2.078,0.237,3.106,0.439c5.241,0.736,10.802,3.07,15.506,8.84
			c0.244,0.275,0.483,0.549,0.724,0.837c2.243,2.743,3.869,5.79,4.895,8.964c0.023-0.162,0.041-0.329,0.066-0.491
			C-187.538,43.453-187.406,42.246-187.334,40.571"/>
	</g>
	<polygon fill-rule="evenodd" clip-rule="evenodd" fill="#004F92" points="20.6,-42.527 23.521,-42.527 23.521,35.216 20.6,35.216 	
		"/>
</symbol>
<use xlink:href="#Nuevo_símbolo"  width="525.93" height="96.453" id="XMLID_1_" x="-262.965" y="-51.882" transform="matrix(1.3478 0 0 -1.3478 365 70.0732)" overflow="visible"/>
</svg>
