<?xml version="1.0" encoding="utf-8"?>
<!-- Generator: Adobe Illustrator 16.0.0, SVG Export Plug-In . SVG Version: 6.00 Build 0)  -->
<!DOCTYPE svg PUBLIC "-//W3C//DTD SVG 1.1//EN" "http://www.w3.org/Graphics/SVG/1.1/DTD/svg11.dtd">
<svg version="1.1" id="Capa_1" xmlns="http://www.w3.org/2000/svg" xmlns:xlink="http://www.w3.org/1999/xlink" x="0px" y="0px"
	 width="671px" height="246px" viewBox="0 0 671 246" enable-background="new 0 0 671 246" xml:space="preserve">
<g>
	<path fill-rule="evenodd" clip-rule="evenodd" fill="#005085" d="M562.339,4.047c69.074-0.552,103.718,64.316,102.652,95.847
		c-0.022,0.582,0.872,1.064,0.646,1.064h-32.063c-1.516-37.796-38.431-67.241-70.817-66.562
		c-42.156,0.889-70.462,32.491-74.55,66.562H457.21c-0.227,0-0.507-0.487-0.414-1.064C464.251,53.087,495.626,4.578,562.339,4.047"
		/>
	<path fill-rule="evenodd" clip-rule="evenodd" fill="#FFFFFF" d="M630.395,65.853l1.313,2.582c0.41,0.798,0.799,1.385,1.181,1.768
		c0.379,0.372,0.773,0.627,1.178,0.762c0.571,0.186,1.232,0.22,1.979,0.104c0.747-0.114,1.581-0.402,2.49-0.866
		c1.265-0.645,2.129-1.35,2.599-2.11c0.471-0.759,0.665-1.495,0.592-2.208c-0.048-0.512-0.318-1.248-0.806-2.195l-1.293-2.541
		L630.395,65.853z M628.153,64.983l12.085-6.159l2.119,4.161c0.482,0.94,0.791,1.687,0.927,2.244
		c0.193,0.772,0.207,1.511,0.037,2.209c-0.216,0.914-0.658,1.742-1.334,2.485c-0.678,0.748-1.557,1.392-2.634,1.938
		c-0.916,0.47-1.786,0.779-2.604,0.923c-0.818,0.145-1.549,0.172-2.179,0.073c-0.639-0.099-1.189-0.281-1.662-0.544
		c-0.467-0.264-0.914-0.64-1.339-1.131c-0.43-0.495-0.825-1.111-1.194-1.836L628.153,64.983z M613.734,47.097l9.422-9.76
		l7.057,6.813l-1.115,1.153l-5.764-5.565l-2.885,2.984l5.399,5.214l-1.108,1.146l-5.396-5.213l-3.208,3.323l5.994,5.784
		l-1.119,1.153L613.734,47.097z M601.04,38.031l6.79-11.75l1.551,0.898l-6.784,11.746L601.04,38.031z M580.405,29.64l3.967-12.972
		l8.753,2.676l-0.468,1.529l-7.036-2.148l-1.228,4.016l6.088,1.862l-0.472,1.53l-6.085-1.859l-1.802,5.893L580.405,29.64z
		 M564.889,27.793l0.943-13.534l1.79,0.124l-0.946,13.533L564.889,27.793z M546.057,29.174l-1.87-11.816l-4.416,0.701l-0.248-1.583
		l10.619-1.684l0.249,1.581l-4.433,0.701l1.871,11.82L546.057,29.174z M518.756,31.375l3.404-1.811
		c0.723-0.383,1.252-0.76,1.58-1.13c0.329-0.366,0.512-0.771,0.549-1.211c0.038-0.443-0.046-0.858-0.252-1.245
		c-0.302-0.564-0.754-0.923-1.359-1.072c-0.607-0.144-1.353,0.021-2.243,0.492l-3.791,2.016L518.756,31.375z M520.727,38.908
		l-6.371-11.976l5.313-2.825c1.067-0.568,1.939-0.892,2.606-0.974c0.669-0.074,1.313,0.068,1.939,0.436
		c0.624,0.369,1.106,0.882,1.457,1.539c0.452,0.851,0.558,1.709,0.316,2.587c-0.24,0.874-0.892,1.7-1.958,2.467
		c0.532-0.024,0.951,0.005,1.275,0.089c0.689,0.179,1.412,0.478,2.163,0.895l3.818,2.151l-1.993,1.063l-2.912-1.654
		c-0.845-0.471-1.52-0.818-2.021-1.038c-0.504-0.224-0.915-0.351-1.23-0.374c-0.318-0.028-0.615-0.007-0.894,0.065
		c-0.197,0.058-0.501,0.195-0.913,0.412l-1.839,0.98l2.829,5.316L520.727,38.908z M503.005,53.728l-9.428-9.753l7.057-6.813
		l1.112,1.15l-5.766,5.565l2.887,2.987l5.398-5.214l1.104,1.146l-5.398,5.213l3.208,3.322l5.994-5.785l1.112,1.151L503.005,53.728z
		 M490.653,63.724l1.224-1.397c1.14,1.003,1.835,2.12,2.083,3.343c0.246,1.225,0.046,2.462-0.597,3.723
		c-0.665,1.305-1.468,2.228-2.412,2.775c-0.95,0.543-2.034,0.773-3.255,0.687c-1.224-0.087-2.413-0.425-3.564-1.013
		c-1.259-0.641-2.239-1.438-2.926-2.397c-0.694-0.959-1.058-2.006-1.092-3.145c-0.039-1.133,0.22-2.232,0.766-3.3
		c0.615-1.21,1.44-2.069,2.478-2.579c1.036-0.511,2.192-0.644,3.472-0.4l-0.428,1.766c-1.025-0.168-1.868-0.089-2.544,0.241
		c-0.673,0.326-1.214,0.893-1.626,1.704c-0.473,0.93-0.648,1.814-0.521,2.668c0.128,0.853,0.503,1.595,1.125,2.228
		c0.62,0.633,1.331,1.158,2.127,1.563c1.03,0.524,2.002,0.83,2.92,0.927c0.92,0.087,1.73-0.084,2.431-0.525
		c0.704-0.437,1.24-1.025,1.617-1.766c0.457-0.893,0.585-1.783,0.386-2.667C492.114,65.271,491.559,64.459,490.653,63.724"/>
	<path fill-rule="evenodd" clip-rule="evenodd" fill="#005085" d="M560.114,211.947c-69.078,0.552-103.72-64.319-102.655-95.845
		c0.021-0.588-0.873-1.062-0.646-1.062h32.061c1.516,37.789,38.431,67.241,70.821,66.556c42.151-0.89,70.46-32.487,74.543-66.556
		h31.001c0.231,0,0.509,0.48,0.419,1.062C658.204,162.906,626.819,211.416,560.114,211.947"/>
	<rect x="456.825" y="106.002" fill-rule="evenodd" clip-rule="evenodd" fill="#9A999E" width="31.405" height="4.526"/>
	<rect x="634.619" y="106.002" fill-rule="evenodd" clip-rule="evenodd" fill="#9A999E" width="31.405" height="4.526"/>
	<path fill-rule="evenodd" clip-rule="evenodd" fill="#FFFFFF" d="M643.338,153.46l-12.75-4.643l0.924-2.539l10.128,0.268
		c0.938,0.029,1.645,0.049,2.106,0.079c-0.408-0.313-1.01-0.787-1.795-1.423l-7.758-6.281l0.827-2.269l12.748,4.636l-0.594,1.626
		l-10.673-3.882l9.328,7.59l-0.559,1.523l-12.19-0.264l10.849,3.95L643.338,153.46z M637.384,164.46l-11.861-6.578l4.754-8.578
		l1.4,0.778l-3.887,7.007l3.636,2.013l3.636-6.563l1.394,0.772l-3.64,6.563l4.042,2.237l4.035-7.282l1.401,0.777L637.384,164.46z
		 M632.019,171.698l-9.554-7.196l-2.692,3.571l-1.28-0.969l6.474-8.584l1.278,0.963l-2.701,3.586l9.557,7.195L632.019,171.698z
		 M617.357,180.659l1.088-1.304c0.539,0.429,1.064,0.688,1.578,0.792c0.514,0.097,1.083,0.021,1.709-0.221
		c0.63-0.246,1.21-0.642,1.756-1.191c0.483-0.482,0.838-0.979,1.065-1.494c0.229-0.515,0.308-0.988,0.239-1.419
		c-0.071-0.435-0.252-0.797-0.55-1.096c-0.304-0.301-0.649-0.478-1.051-0.524c-0.4-0.054-0.873,0.046-1.429,0.297
		c-0.357,0.157-1.083,0.568-2.177,1.24c-1.094,0.668-1.911,1.088-2.449,1.254c-0.694,0.213-1.339,0.261-1.917,0.128
		c-0.581-0.128-1.09-0.417-1.533-0.861c-0.482-0.482-0.799-1.068-0.944-1.765c-0.15-0.696-0.067-1.417,0.242-2.164
		c0.313-0.746,0.79-1.443,1.436-2.087c0.713-0.71,1.451-1.223,2.229-1.538c0.767-0.313,1.526-0.394,2.258-0.245
		c0.738,0.155,1.399,0.501,1.982,1.045l-1.125,1.306c-0.665-0.542-1.353-0.776-2.04-0.708c-0.684,0.065-1.393,0.467-2.135,1.208
		c-0.766,0.767-1.185,1.465-1.255,2.102c-0.07,0.628,0.095,1.148,0.489,1.543c0.345,0.343,0.755,0.504,1.222,0.478
		c0.471-0.022,1.334-0.433,2.599-1.232c1.269-0.796,2.181-1.301,2.738-1.51c0.816-0.3,1.556-0.39,2.212-0.26
		c0.662,0.128,1.25,0.453,1.765,0.964c0.514,0.514,0.843,1.138,1.004,1.882c0.158,0.745,0.091,1.514-0.206,2.314
		c-0.295,0.8-0.789,1.54-1.471,2.222c-0.868,0.87-1.721,1.47-2.563,1.803c-0.84,0.334-1.68,0.416-2.522,0.242
		C618.759,181.685,618.008,181.281,617.357,180.659 M613.688,188.555l-3.459-4.585l-8.879-3.1l1.74-1.317l4.599,1.66
		c0.853,0.312,1.68,0.647,2.483,1.003c-0.106-0.811-0.192-1.749-0.259-2.806l-0.302-4.768l1.667-1.258l0.386,9.506l3.457,4.588
		L613.688,188.555z M596.858,193.175l1.426-0.928c0.389,0.562,0.814,0.966,1.275,1.214c0.465,0.246,1.031,0.343,1.702,0.292
		c0.669-0.055,1.346-0.264,2.026-0.627c0.605-0.319,1.09-0.693,1.457-1.12c0.369-0.423,0.581-0.855,0.642-1.285
		c0.058-0.436-0.007-0.838-0.205-1.208c-0.201-0.377-0.482-0.645-0.853-0.812c-0.369-0.167-0.85-0.208-1.451-0.129
		c-0.393,0.045-1.205,0.226-2.448,0.548c-1.235,0.317-2.14,0.483-2.708,0.483c-0.73,0.003-1.356-0.147-1.874-0.437
		c-0.514-0.296-0.917-0.718-1.211-1.269c-0.321-0.603-0.45-1.258-0.388-1.966c0.062-0.71,0.355-1.379,0.866-2
		c0.518-0.621,1.173-1.145,1.98-1.578c0.892-0.471,1.747-0.744,2.58-0.816c0.828-0.079,1.576,0.065,2.236,0.429
		c0.662,0.361,1.188,0.885,1.591,1.574l-1.455,0.918c-0.488-0.708-1.074-1.136-1.746-1.27c-0.68-0.137-1.475,0.037-2.397,0.53
		c-0.958,0.51-1.559,1.056-1.818,1.641c-0.248,0.584-0.244,1.126,0.019,1.62c0.233,0.43,0.574,0.702,1.032,0.815
		c0.455,0.115,1.399-0.024,2.844-0.417c1.445-0.391,2.462-0.608,3.055-0.646c0.872-0.046,1.604,0.084,2.196,0.399
		c0.599,0.319,1.062,0.796,1.403,1.442c0.338,0.638,0.478,1.334,0.413,2.092c-0.067,0.758-0.358,1.474-0.875,2.15
		c-0.516,0.674-1.204,1.24-2.057,1.696c-1.086,0.576-2.078,0.905-2.977,0.975c-0.9,0.075-1.727-0.094-2.485-0.507
		C597.905,194.566,597.303,193.962,596.858,193.175 M574.471,203.857l-1.874-11.818l-4.413,0.696l-0.251-1.579l10.618-1.682
		l0.255,1.583l-4.437,0.699l1.876,11.818L574.471,203.857z M557.369,204.955l-0.472-13.564l1.839-0.06l7.496,10.396l-0.371-10.647
		l1.717-0.057l0.475,13.557l-1.84,0.067l-7.494-10.407l0.371,10.654L557.369,204.955z M544.777,203.481l1.652-13.467l9.734,1.195
		l-0.195,1.59l-7.954-0.979l-0.505,4.125l7.447,0.913l-0.194,1.582l-7.448-0.914l-0.561,4.582l8.265,1.014l-0.192,1.592
		L544.777,203.481z M529.425,199.492l3.512-13.107l2.611,0.704l0.617,10.106c0.052,0.938,0.091,1.641,0.104,2.111
		c0.275-0.437,0.695-1.081,1.264-1.918l5.578-8.275l2.334,0.625l-3.511,13.104l-1.675-0.45l2.941-10.968l-6.747,9.951l-1.564-0.421
		l-0.803-12.169l-2.986,11.156L529.425,199.492z M517.153,193.912l5.948-12.195l8.816,4.299l-0.704,1.44l-7.201-3.519l-1.82,3.737
		l6.745,3.294l-0.699,1.428l-6.745-3.29l-2.027,4.151l7.486,3.651l-0.698,1.439L517.153,193.912z M512.981,185.058l0.885-1.321
		l4.772,3.21l-2.815,4.173c-1.127,0.089-2.176,0.018-3.152-0.212c-0.974-0.231-1.874-0.623-2.689-1.171
		c-1.106-0.749-1.952-1.661-2.533-2.745c-0.585-1.078-0.803-2.227-0.661-3.429c0.142-1.204,0.586-2.36,1.333-3.467
		c0.738-1.095,1.658-1.96,2.753-2.598c1.097-0.645,2.235-0.906,3.401-0.785c1.17,0.122,2.315,0.561,3.436,1.313
		c0.811,0.549,1.457,1.176,1.938,1.884c0.481,0.705,0.749,1.419,0.805,2.143c0.055,0.722-0.075,1.524-0.392,2.417l-1.591-0.54
		c0.218-0.688,0.311-1.277,0.284-1.774c-0.03-0.493-0.215-1.001-0.548-1.511c-0.328-0.509-0.782-0.957-1.349-1.338
		c-0.678-0.46-1.337-0.752-1.972-0.879c-0.639-0.13-1.219-0.126-1.753,0.003c-0.532,0.134-1.017,0.344-1.458,0.636
		c-0.756,0.503-1.41,1.158-1.959,1.976c-0.674,0.999-1.067,1.956-1.177,2.863c-0.109,0.911,0.053,1.75,0.496,2.52
		c0.438,0.772,1.024,1.409,1.764,1.905c0.651,0.44,1.364,0.737,2.146,0.905c0.779,0.166,1.423,0.212,1.928,0.147l1.414-2.095
		L512.981,185.058z M500.725,175.033l3.419,3.08l1.46-3.74c0.443-1.136,0.83-2.047,1.166-2.733c-0.711,0.528-1.467,1.01-2.277,1.435
		L500.725,175.033z M494.088,176.555l12.949-6.595l1.438,1.294l-4.953,13.799l-1.52-1.37l1.574-4.114l-4.215-3.797l-3.855,2.061
		L494.088,176.555z M486.617,166.908l10.691-8.35l1.135,1.449l-4.009,12.174l8.397-6.557l1.056,1.355l-10.688,8.354l-1.135-1.452
		l4.014-12.181l-8.399,6.568L486.617,166.908z M486.289,155.288l2.231,4.024l2.597-3.062c0.788-0.928,1.455-1.666,1.995-2.206
		c-0.846,0.272-1.717,0.476-2.623,0.617L486.289,155.288z M479.516,154.566l14.395-2.02l0.936,1.691l-9.174,11.431l-0.99-1.786
		l2.829-3.378l-2.755-4.962l-4.313,0.691L479.516,154.566z M474.459,141.128l12.75-4.644l0.922,2.545l-7.928,6.301
		c-0.737,0.584-1.292,1.021-1.667,1.295c0.515-0.022,1.279-0.046,2.295-0.066l9.977-0.176l0.829,2.273l-12.748,4.638l-0.593-1.627
		l10.67-3.883l-12.018,0.178l-0.554-1.519l9.509-7.64l-10.853,3.95L474.459,141.128z"/>
	<rect x="495.71" y="84.708" fill-rule="evenodd" clip-rule="evenodd" fill="#005085" width="130.922" height="4.452"/>
	<rect x="495.921" y="131.55" fill-rule="evenodd" clip-rule="evenodd" fill="#9A999E" width="130.449" height="3.461"/>
	<rect x="504.604" y="95.62" fill-rule="evenodd" clip-rule="evenodd" fill="#9A999E" width="6.514" height="27.946"/>
	<path fill-rule="evenodd" clip-rule="evenodd" fill="#9A999E" d="M549.655,95.624h6.2l14.771,16.467V95.624h6.767v27.943h-5.714
		c-0.619-0.702-1.596-1.809-2.938-3.327c-1.332-1.516-2.669-3.04-4.012-4.571c-1.345-1.524-3.041-3.456-5.099-5.776
		c-2.058-2.33-3.108-3.524-3.165-3.573v17.247h-6.81V95.624z"/>
	<path fill-rule="evenodd" clip-rule="evenodd" fill="#9A999E" d="M610.475,95.48h0.844v6.658h7.418v4.595h-7.418v7.358
		c0,0.983,0.06,1.803,0.167,2.457c0.114,0.653,0.393,1.208,0.848,1.651c0.452,0.441,1.151,0.666,2.09,0.666
		c0.67,0,1.243-0.076,1.716-0.237c0.473-0.151,1.337-0.492,2.598-1.012v4.821c-0.806,0.267-1.477,0.49-2.026,0.673
		c-0.542,0.179-1.122,0.324-1.725,0.44c-0.607,0.111-1.335,0.172-2.164,0.172c-2.622,0-4.592-0.716-5.901-2.164
		c-1.311-1.437-1.964-3.489-1.964-6.152v-8.672h-3.071v-1.234L610.475,95.48z"/>
	<path fill-rule="evenodd" clip-rule="evenodd" fill="#9A999E" d="M591.207,105.498c-1.226,0-2.268,0.434-3.111,1.313
		c-0.84,0.868-1.335,1.98-1.494,3.315h9.241c-0.123-1.315-0.6-2.415-1.426-3.303C593.585,105.941,592.518,105.498,591.207,105.498
		 M590.793,101.405c2.129,0,3.917,0.38,5.349,1.135c1.437,0.752,2.56,1.747,3.377,2.974c0.816,1.226,1.393,2.539,1.721,3.938
		c0.327,1.395,0.489,2.794,0.489,4.204h-15.211c0.184,1.936,0.873,3.396,2.07,4.391c1.192,0.988,2.832,1.482,4.914,1.482
		c2.675,0,5.297-0.979,7.86-2.935v4.286c-2.597,1.895-5.919,2.842-9.982,2.842c-2.286,0-4.321-0.45-6.128-1.357
		c-1.79-0.911-3.176-2.198-4.16-3.882c-0.976-1.679-1.469-3.629-1.469-5.85c0-2.196,0.494-4.153,1.479-5.869
		c0.989-1.718,2.338-3.036,4.045-3.967C586.852,101.873,588.733,101.405,590.793,101.405"/>
	<polygon fill-rule="evenodd" clip-rule="evenodd" fill="#005085" points="542.915,106.522 543.727,108.728 545.851,108.728 
		544.14,110.009 544.83,112.081 542.915,110.82 541.035,112.081 541.725,110.009 539.981,108.728 542.154,108.728 	"/>
	<polygon fill-rule="evenodd" clip-rule="evenodd" fill="#005085" points="541.486,112.715 542.264,114.86 544.385,114.86 
		542.676,116.135 543.365,118.188 541.486,116.949 539.568,118.188 540.277,116.135 538.552,114.86 540.692,114.86 	"/>
	<polygon fill-rule="evenodd" clip-rule="evenodd" fill="#005085" points="536.658,117.424 537.485,119.631 539.575,119.631 
		537.832,120.912 538.538,122.967 536.658,121.74 534.743,122.967 535.43,120.912 533.725,119.631 535.844,119.631 	"/>
	<polygon fill-rule="evenodd" clip-rule="evenodd" fill="#005085" points="532.429,111.729 533.152,113.867 535.347,113.867 
		533.603,115.146 534.259,117.199 532.429,115.96 530.46,117.199 531.152,115.146 529.477,113.867 531.584,113.867 	"/>
	<polygon fill-rule="evenodd" clip-rule="evenodd" fill="#005085" points="540.519,122.72 541.243,124.947 543.436,124.947 
		541.709,126.276 542.348,128.331 540.519,127.07 538.551,128.331 539.26,126.276 537.583,124.947 539.672,124.947 	"/>
	<polygon fill-rule="evenodd" clip-rule="evenodd" fill="#005085" points="529.809,119.62 530.654,121.899 532.742,121.899 
		531.068,123.11 531.707,125.251 529.809,123.987 527.963,125.251 528.602,123.11 526.892,121.899 529.014,121.899 	"/>
	<polygon fill-rule="evenodd" clip-rule="evenodd" fill="#005085" points="523.548,117.454 524.292,119.733 526.434,119.733 
		524.738,121.011 525.413,123.064 523.548,121.839 521.596,123.064 522.308,121.011 520.631,119.733 522.721,119.733 	"/>
	<polygon fill-rule="evenodd" clip-rule="evenodd" fill="#005085" points="518.792,112.813 519.637,115.025 521.727,115.025 
		520.069,116.303 520.762,118.375 518.792,117.113 516.964,118.375 517.586,116.303 515.876,115.025 518.068,115.025 	"/>
	<polygon fill-rule="evenodd" clip-rule="evenodd" fill="#005085" points="517.345,106.423 518.141,108.667 520.264,108.667 
		518.607,109.908 519.227,111.982 517.345,110.792 515.433,111.982 516.086,109.908 514.414,108.667 516.552,108.667 	"/>
	<polygon fill-rule="evenodd" clip-rule="evenodd" fill="#005085" points="519.104,100.142 519.864,102.298 522.04,102.298 
		520.293,103.629 520.983,105.685 519.104,104.493 517.189,105.685 517.847,103.629 516.168,102.298 518.31,102.298 	"/>
	<polygon fill-rule="evenodd" clip-rule="evenodd" fill="#005085" points="523.513,95.31 524.307,97.501 526.445,97.501 
		524.753,98.797 525.357,100.852 523.513,99.608 521.632,100.852 522.25,98.797 520.579,97.501 522.734,97.501 	"/>
	<polygon fill-rule="evenodd" clip-rule="evenodd" fill="#005085" points="530.105,93.763 530.949,95.919 533.039,95.919 
		531.362,97.268 532.001,99.305 530.105,98.061 528.253,99.305 528.895,97.268 527.188,95.919 529.306,95.919 	"/>
	<polygon fill-rule="evenodd" clip-rule="evenodd" fill="#005085" points="536.976,95.112 537.736,97.304 539.877,97.304 
		538.167,98.6 538.856,100.653 536.976,99.412 535.058,100.653 535.751,98.6 534.062,97.304 536.181,97.304 	"/>
	<polygon fill-rule="evenodd" clip-rule="evenodd" fill="#005085" points="540.929,100.042 541.725,102.2 543.865,102.2 
		542.154,103.531 542.778,105.584 540.929,104.324 539.048,105.584 539.67,103.531 537.995,102.2 540.083,102.2 	"/>
</g>
<g>
	<g>
		<path d="M24.096,234.575l0.498-1.803c0.423,0.218,0.904,0.41,1.442,0.575c0.538,0.166,1.03,0.249,1.477,0.249
			c0.687,0,1.207-0.108,1.562-0.326c0.354-0.217,0.532-0.532,0.532-0.944c0-0.286-0.14-0.546-0.421-0.781
			c-0.28-0.234-0.712-0.512-1.296-0.833l-0.515-0.309c-0.767-0.458-1.376-0.853-1.828-1.185s-0.841-0.724-1.167-1.176
			s-0.489-0.958-0.489-1.52c0-0.595,0.16-1.13,0.481-1.605c0.32-0.475,0.781-0.847,1.382-1.116c0.601-0.269,1.319-0.403,2.154-0.403
			c0.984,0,2.083,0.292,3.296,0.875l-0.738,1.785c-0.47-0.229-0.896-0.406-1.279-0.532c-0.383-0.125-0.798-0.189-1.244-0.189
			c-0.515,0-0.936,0.101-1.262,0.301s-0.489,0.495-0.489,0.884c0,0.332,0.128,0.609,0.386,0.833c0.257,0.223,0.678,0.507,1.262,0.85
			l0.549,0.309l0.498,0.292c0.675,0.389,1.213,0.729,1.614,1.021c0.4,0.292,0.735,0.646,1.004,1.064
			c0.269,0.418,0.403,0.907,0.403,1.468c0,0.629-0.169,1.185-0.506,1.665c-0.338,0.48-0.835,0.858-1.494,1.133
			c-0.658,0.275-1.445,0.412-2.36,0.412c-0.48,0-1.079-0.106-1.794-0.317C25.037,235.042,24.485,234.815,24.096,234.575z"/>
		<path d="M41.657,224.189l-0.687,1.597l-0.429-0.121c-0.446-0.137-0.801-0.231-1.064-0.283c-0.263-0.051-0.589-0.077-0.979-0.077
			c-0.618,0-1.173,0.172-1.665,0.515s-0.878,0.835-1.159,1.476c-0.281,0.641-0.42,1.391-0.42,2.249c0,0.767,0.123,1.468,0.369,2.103
			c0.246,0.635,0.604,1.139,1.073,1.51c0.469,0.372,1.024,0.558,1.665,0.558c0.847,0,1.7-0.177,2.558-0.532l0.841,1.648
			c-0.435,0.229-0.964,0.412-1.588,0.549c-0.624,0.138-1.188,0.206-1.691,0.206c-1.179,0-2.186-0.263-3.021-0.79
			c-0.836-0.526-1.465-1.245-1.889-2.154c-0.423-0.91-0.635-1.937-0.635-3.082c0-1.19,0.232-2.249,0.695-3.176
			c0.464-0.927,1.122-1.651,1.974-2.171c0.853-0.521,1.84-0.781,2.961-0.781c0.412,0,0.916,0.063,1.511,0.189
			C40.673,223.749,41.2,223.938,41.657,224.189z"/>
		<path d="M42.533,229.769h4.498l0.171,1.751h-4.48L42.533,229.769z"/>
		<path d="M57.038,224.189l-0.687,1.597l-0.429-0.121c-0.446-0.137-0.801-0.231-1.064-0.283c-0.263-0.051-0.589-0.077-0.979-0.077
			c-0.618,0-1.173,0.172-1.665,0.515s-0.878,0.835-1.159,1.476c-0.281,0.641-0.42,1.391-0.42,2.249c0,0.767,0.123,1.468,0.369,2.103
			c0.246,0.635,0.604,1.139,1.073,1.51c0.469,0.372,1.024,0.558,1.665,0.558c0.847,0,1.7-0.177,2.558-0.532l0.841,1.648
			c-0.435,0.229-0.964,0.412-1.588,0.549c-0.624,0.138-1.188,0.206-1.691,0.206c-1.179,0-2.186-0.263-3.021-0.79
			c-0.836-0.526-1.465-1.245-1.889-2.154c-0.423-0.91-0.635-1.937-0.635-3.082c0-1.19,0.232-2.249,0.695-3.176
			c0.464-0.927,1.122-1.651,1.974-2.171c0.853-0.521,1.84-0.781,2.961-0.781c0.412,0,0.916,0.063,1.511,0.189
			C56.054,223.749,56.581,223.938,57.038,224.189z"/>
		<path d="M66.668,233.614l0.36,1.734h-8.171v-11.673h6.97l0.343,1.751h-5.098v3.142h3.811l0.361,1.768h-4.171v3.279H66.668z"/>
		<path d="M68.831,235.348v-11.673h3.657c1.35,0,2.458,0.307,3.322,0.918c0.864,0.612,1.296,1.502,1.296,2.669
			c0,0.698-0.18,1.311-0.541,1.837c-0.361,0.526-0.844,0.938-1.451,1.236l2.867,5.013h-2.369l-2.472-4.429h-2.094v4.429H68.831z
			 M72.419,225.528h-1.373v3.571h1.407c0.698,0,1.256-0.14,1.674-0.421c0.418-0.28,0.627-0.718,0.627-1.313
			C74.754,226.141,73.975,225.528,72.419,225.528z"/>
		<path d="M84.899,228.927c0.572,0.321,1.021,0.75,1.348,1.288c0.326,0.538,0.489,1.133,0.489,1.785
			c0,0.698-0.161,1.316-0.481,1.854c-0.32,0.538-0.761,0.959-1.322,1.262c-0.561,0.303-1.196,0.455-1.905,0.455
			c-0.87,0-1.64-0.175-2.309-0.523c-0.669-0.349-1.193-0.864-1.571-1.545c-0.377-0.681-0.566-1.508-0.566-2.481
			c0-1.259,0.349-2.36,1.047-3.304c0.698-0.944,1.562-1.691,2.592-2.24c1.03-0.549,2.048-0.887,3.056-1.013l0.309,1.837
			c-2.128,0.584-3.571,1.431-4.326,2.541c0.549-0.263,1.122-0.395,1.717-0.395C83.686,228.447,84.326,228.607,84.899,228.927z
			 M84.229,233.253c0.343-0.32,0.515-0.709,0.515-1.167c0-0.538-0.171-0.987-0.515-1.348c-0.344-0.36-0.779-0.541-1.305-0.541
			c-0.881,0-1.637,0.235-2.266,0.704c0.011,0.961,0.223,1.674,0.635,2.137c0.412,0.464,0.967,0.695,1.665,0.695
			C83.462,233.734,83.886,233.574,84.229,233.253z"/>
		<path d="M93.911,228.927c0.572,0.321,1.021,0.75,1.348,1.288c0.326,0.538,0.489,1.133,0.489,1.785
			c0,0.698-0.161,1.316-0.481,1.854c-0.32,0.538-0.761,0.959-1.322,1.262c-0.561,0.303-1.196,0.455-1.905,0.455
			c-0.87,0-1.64-0.175-2.309-0.523c-0.669-0.349-1.193-0.864-1.571-1.545c-0.377-0.681-0.566-1.508-0.566-2.481
			c0-1.259,0.349-2.36,1.047-3.304c0.698-0.944,1.562-1.691,2.592-2.24c1.03-0.549,2.048-0.887,3.056-1.013l0.309,1.837
			c-2.128,0.584-3.571,1.431-4.326,2.541c0.549-0.263,1.122-0.395,1.717-0.395C92.698,228.447,93.338,228.607,93.911,228.927z
			 M93.242,233.253c0.343-0.32,0.515-0.709,0.515-1.167c0-0.538-0.171-0.987-0.515-1.348c-0.344-0.36-0.779-0.541-1.305-0.541
			c-0.881,0-1.637,0.235-2.266,0.704c0.011,0.961,0.223,1.674,0.635,2.137c0.412,0.464,0.967,0.695,1.665,0.695
			C92.475,233.734,92.898,233.574,93.242,233.253z"/>
		<path d="M96.606,230.455c0-0.961,0.206-1.825,0.618-2.592c0.412-0.767,0.981-1.368,1.708-1.803
			c0.727-0.435,1.547-0.652,2.463-0.652c0.904,0,1.719,0.215,2.446,0.644c0.727,0.429,1.293,1.027,1.699,1.794
			c0.406,0.767,0.609,1.625,0.609,2.575c0,0.984-0.206,1.869-0.618,2.652c-0.412,0.784-0.981,1.396-1.708,1.836
			c-0.727,0.44-1.542,0.661-2.446,0.661c-0.904,0-1.72-0.221-2.446-0.661c-0.727-0.44-1.296-1.05-1.708-1.828
			C96.812,232.304,96.606,231.428,96.606,230.455z M98.649,230.404c0,0.618,0.117,1.176,0.352,1.674
			c0.234,0.498,0.561,0.887,0.979,1.167c0.418,0.281,0.89,0.421,1.417,0.421c0.526,0,0.998-0.138,1.416-0.412
			c0.418-0.275,0.744-0.652,0.979-1.133c0.234-0.48,0.352-1.024,0.352-1.63s-0.12-1.153-0.36-1.64
			c-0.241-0.486-0.57-0.867-0.987-1.142c-0.418-0.274-0.89-0.412-1.416-0.412c-0.515,0-0.981,0.135-1.399,0.404
			s-0.744,0.638-0.979,1.107S98.649,229.809,98.649,230.404z"/>
		<path d="M110.562,225.408c0.767,0,1.422,0.135,1.966,0.403c0.543,0.269,0.953,0.63,1.228,1.082
			c0.274,0.452,0.412,0.953,0.412,1.502c0,0.492-0.143,0.953-0.429,1.382c-0.286,0.429-0.606,0.724-0.961,0.884
			c0.229,0.058,0.466,0.206,0.712,0.446c0.246,0.24,0.455,0.549,0.626,0.927c0.172,0.377,0.257,0.79,0.257,1.236
			c0,0.629-0.166,1.202-0.498,1.717c-0.332,0.515-0.807,0.921-1.425,1.219c-0.618,0.297-1.328,0.446-2.129,0.446
			c-0.583,0-1.208-0.103-1.871-0.309s-1.288-0.463-1.871-0.772l1.133-1.494c0.458,0.275,0.887,0.472,1.288,0.592
			c0.4,0.12,0.853,0.18,1.356,0.18c0.538,0,1.001-0.143,1.39-0.429s0.584-0.664,0.584-1.133c0-0.538-0.212-0.958-0.635-1.262
			c-0.424-0.303-1.07-0.455-1.94-0.455h-0.721l-0.309-1.733h1.133c0.687,0,1.236-0.129,1.648-0.386
			c0.412-0.258,0.618-0.598,0.618-1.021c0-0.343-0.149-0.632-0.446-0.867c-0.298-0.234-0.687-0.352-1.167-0.352
			c-0.847,0-1.7,0.297-2.558,0.893l-1.047-1.494c0.595-0.389,1.19-0.687,1.785-0.893S109.91,225.408,110.562,225.408z"/>
		<path d="M120.09,225.631v9.716h-2.232v-7.244l-1.957,0.755l-0.841-1.666l3.536-1.562H120.09z"/>
		<path d="M125.171,225.408c0.721,0,1.345,0.132,1.871,0.395s0.933,0.624,1.219,1.082c0.286,0.458,0.429,0.973,0.429,1.545
			c0,0.755-0.177,1.402-0.532,1.939c-0.355,0.538-0.973,1.179-1.854,1.923l-1.631,1.356h4.343l0.206,1.7h-7.587v-1.494l3.468-2.953
			c0.595-0.503,1.03-0.944,1.305-1.322c0.274-0.377,0.412-0.732,0.412-1.064c0-0.423-0.169-0.747-0.506-0.97
			s-0.792-0.334-1.365-0.334c-0.778,0-1.677,0.292-2.695,0.875l-0.395-1.786C122.854,225.706,123.958,225.408,125.171,225.408z"/>
	</g>
	<g>
		<g>
			<path fill="#0081C6" d="M30.136,210.61c-12.962,0-23.507-10.546-23.507-23.506V29.212c0-12.967,10.545-23.517,23.507-23.517
				h92.583c12.96,0,23.507,10.549,23.507,23.517v157.892c0,12.96-10.547,23.506-23.507,23.506H30.136z M13.238,187.104
				c0,9.317,7.581,16.897,16.898,16.897h92.583c9.317,0,16.898-7.581,16.898-16.897v-54.065
				c-19.057,11.282-40.812,17.229-63.105,17.229c-22.358,0-44.168-5.979-63.274-17.323V187.104z"/>
			<path fill="#FFFFFF" d="M122.719,7.347c12.074,0,21.855,9.792,21.855,21.866v157.89c0,12.074-9.781,21.854-21.855,21.854H30.136
				c-12.072,0-21.855-9.781-21.855-21.854V29.213c0-12.074,9.783-21.866,21.855-21.866H122.719 M30.136,205.652h92.583
				c10.221,0,18.551-8.316,18.551-18.55v-57.001c-18.793,11.743-40.988,18.517-64.76,18.517c-23.849,0-46.1-6.819-64.924-18.615
				v57.1C11.585,197.336,19.902,205.652,30.136,205.652 M122.719,4.043H30.136c-13.873,0-25.159,11.29-25.159,25.169v157.89
				c0,13.874,11.286,25.162,25.159,25.162h92.583c13.872,0,25.16-11.288,25.16-25.162V29.213
				C147.878,15.333,136.591,4.043,122.719,4.043 M30.136,202.349c-8.406,0-15.246-6.839-15.246-15.247v-51.294
				c18.753,10.559,39.933,16.113,61.62,16.113c21.626,0,42.748-5.524,61.455-16.022v51.203c0,8.407-6.841,15.247-15.246,15.247
				H30.136z"/>
			<path fill="#FFFFFF" d="M141.267,130.1v57.005c0,10.232-8.325,18.549-18.55,18.549H30.134c-10.234,0-18.547-8.316-18.547-18.549
				v-57.104c18.824,11.797,41.076,18.616,64.924,18.616C100.281,148.617,122.476,141.842,141.267,130.1"/>
			<path fill="#FFFFFF" d="M76.439,68.606c-5.804-0.004-10.521-4.728-10.517-10.53c0.005-5.802,4.728-10.52,10.531-10.514
				c5.803,0.003,10.519,4.727,10.516,10.528C86.962,63.896,82.241,68.611,76.439,68.606 M76.45,51.458
				c-3.655-0.002-6.628,2.968-6.631,6.622c-0.002,3.653,2.969,6.627,6.622,6.629c3.655,0.004,6.628-2.967,6.629-6.62
				C83.074,54.435,80.103,51.459,76.45,51.458"/>
			<path fill="#FFFFFF" d="M57.148,74.659c-3.828-4.467-6.151-10.263-6.145-16.593c0.003-5.045,1.486-9.747,4.025-13.705
				l-3.117-2.352c-3.03,4.619-4.801,10.128-4.805,16.053c-0.007,7.407,2.748,14.178,7.279,19.356L57.148,74.659z"/>
			<path fill="#FFFFFF" d="M54.384,38.749l2.761,2.762c0.846-0.986,1.766-1.907,2.753-2.756l-2.761-2.761
				C56.163,36.849,55.241,37.771,54.384,38.749"/>
			<path fill="#FFFFFF" d="M76.528,28.683c-5.953-0.004-11.496,1.777-16.133,4.832l2.349,3.119c3.977-2.563,8.706-4.057,13.78-4.053
				c6.646,0.007,12.844,2.518,17.541,7l3.406-2.106C91.974,31.855,84.538,28.692,76.528,28.683"/>
			<path fill="#FFFFFF" d="M88.239,68.997c-2.932,3.149-7.11,5.121-11.745,5.12c-8.838-0.006-16.024-7.205-16.019-16.043
				c0.007-8.842,7.203-16.027,16.041-16.02c3.273,0.002,6.41,1.003,9.034,2.797l3.556-2.2c-3.509-2.866-7.934-4.492-12.586-4.494
				c-10.987-0.007-19.933,8.926-19.944,19.915c-0.007,10.988,8.928,19.935,19.916,19.942c5.935,0.003,11.266-2.601,14.924-6.724
				L88.239,68.997z"/>
			<path fill="#FFFFFF" d="M90.688,79.269c-4.062,2.73-8.948,4.324-14.199,4.318c-6.333-0.004-12.125-2.333-16.588-6.17
				l-2.762,2.758c5.171,4.541,11.94,7.304,19.346,7.309c6.164,0.006,11.888-1.902,16.623-5.15L90.688,79.269z"/>
			<path fill="#FFFFFF" d="M100.093,40.426l-11.392,7.05c0,0,3.838,4.459,3.838,10.621c0,2.807-0.733,5.449-2.009,7.745l3.174,2.293
				c1.732-2.951,2.729-6.378,2.73-10.037c0.004-3.291-0.802-6.503-2.333-9.379l4.751-2.941c2.075,3.761,3.161,7.984,3.158,12.323
				c-0.006,7.414-3.191,14.093-8.26,18.754l2.418,3.064c5.97-5.381,9.74-13.167,9.74-21.814
				C105.908,47.638,100.093,40.426,100.093,40.426"/>
			<path fill="#FFFFFF" d="M55.544,102.083c-4.547-0.004-8.25,3.683-8.255,8.219c-0.002,4.534,3.695,8.227,8.244,8.23
				c4.551,0.002,8.256-3.684,8.258-8.218C63.794,105.779,60.095,102.084,55.544,102.083 M55.535,115.155
				c-2.684-0.002-4.865-2.178-4.863-4.852c0-2.671,2.187-4.844,4.869-4.844c2.685,0.001,4.865,2.18,4.864,4.852
				C60.403,112.983,58.217,115.157,55.535,115.155"/>
			<path fill="#FFFFFF" d="M27.933,118.018l-3.448-0.004l0.011-14.052l3.446,0.003L27.933,118.018z M26.213,102.169
				c-1.173,0-2.092-0.917-2.09-2.086c0-1.171,0.919-2.085,2.093-2.083c1.173,0,2.09,0.918,2.09,2.087
				C28.305,101.255,27.387,102.169,26.213,102.169"/>
			<path fill="#FFFFFF" d="M74.813,102.043c-4.551-0.003-8.255,3.684-8.259,8.219c0,0.005-0.002,7.903-0.002,7.903l3.64,0.002
				l0.006-8.156c0-2.533,2.069-4.592,4.611-4.589c2.511,0.002,4.559,2.012,4.607,4.501l-0.008,8.25l3.646,0.002l0.005-7.899
				C83.06,105.739,79.361,102.048,74.813,102.043"/>
			<path fill="#FFFFFF" d="M94.14,115.43h-0.002c0,0-0.539,0.04-0.749,0.04c-1.482,0-2.187-0.372-2.187-2.47l0.007-8.044
				l3.076,0.002l0.001-2.682l-3.068-0.002l0.002-3.153l-3.639-0.003v3.155l-2.094-0.001l-0.002,2.667l2.091,0.005l-0.005,7.559
				c0,1.097,0.08,2.695,0.774,3.958c0.764,1.391,2.112,2.096,4.012,2.098c0.917,0,1.779-0.173,1.779-0.173L94.14,115.43z"/>
			<path fill="#FFFFFF" d="M39.419,118.561c-4.573,0-8.291-3.717-8.287-8.271c0.001-4.56,3.725-8.26,8.298-8.26
				c3.869,0,6.026,2.588,6.026,2.588l-2.206,2.727c0,0-1.363-1.858-3.822-1.858c-2.664,0-4.828,2.154-4.83,4.805
				c-0.002,2.652,2.161,4.813,4.823,4.813c2.524,0,3.854-1.895,3.854-1.895l2.219,2.72C45.494,115.93,43.289,118.561,39.419,118.561
				"/>
			<path fill="#FFFFFF" d="M122.818,118.561c-4.571,0-8.291-3.717-8.288-8.271c0.002-4.56,3.726-8.26,8.3-8.26
				c3.867,0,6.022,2.588,6.022,2.588l-2.204,2.727c0,0-1.363-1.858-3.822-1.858c-2.664,0-4.826,2.154-4.83,4.805
				c-0.002,2.652,2.16,4.813,4.824,4.813c2.524,0,3.854-1.895,3.854-1.895l2.216,2.72
				C128.892,115.93,126.687,118.561,122.818,118.561"/>
			<path fill="#FFFFFF" d="M104.271,101.962c-4.837,0-7.743,4.006-7.743,8.356c0,4.85,3.379,8.247,8.231,8.247
				c4.875,0,6.751-3.648,6.751-3.648l-2.487-1.864c0,0-1.268,2.245-4.202,2.245c-2.582,0-4.558-1.615-4.717-4.038l11.758,0.008
				c0,0,0.054-0.761,0.054-1.028C111.915,106.688,110.144,101.962,104.271,101.962 M100.238,108.582
				c0.289-2.088,1.999-3.473,4.059-3.473c2.164,0.002,3.744,1.36,3.944,3.479L100.238,108.582z"/>
		</g>
		<g>
			<path fill="#0081C6" d="M36.772,167.989v15.564H33.82v-15.564H36.772z"/>
			<path fill="#0081C6" d="M39.794,182.524l0.664-2.403c0.564,0.29,1.205,0.545,1.922,0.767s1.374,0.332,1.969,0.332
				c0.916,0,1.609-0.145,2.083-0.435c0.473-0.29,0.709-0.709,0.709-1.259c0-0.381-0.187-0.729-0.561-1.042
				c-0.374-0.313-0.95-0.683-1.728-1.11l-0.687-0.412c-1.023-0.61-1.835-1.137-2.438-1.58c-0.603-0.442-1.122-0.965-1.556-1.568
				c-0.435-0.603-0.652-1.278-0.652-2.025c0-0.793,0.213-1.507,0.641-2.14s1.042-1.129,1.843-1.488
				c0.801-0.358,1.758-0.538,2.873-0.538c1.312,0,2.777,0.389,4.395,1.167l-0.984,2.38c-0.626-0.305-1.194-0.542-1.705-0.709
				s-1.064-0.252-1.66-0.252c-0.687,0-1.247,0.134-1.682,0.401s-0.652,0.66-0.652,1.179c0,0.442,0.172,0.813,0.515,1.11
				c0.343,0.298,0.904,0.675,1.682,1.133l0.732,0.412l0.664,0.389c0.9,0.519,1.617,0.973,2.151,1.362
				c0.534,0.389,0.98,0.862,1.339,1.419s0.538,1.209,0.538,1.957c0,0.839-0.226,1.579-0.675,2.22
				c-0.45,0.641-1.114,1.144-1.991,1.51c-0.878,0.366-1.927,0.549-3.147,0.549c-0.641,0-1.438-0.141-2.392-0.423
				C41.049,183.146,40.313,182.844,39.794,182.524z"/>
			<path fill="#0081C6" d="M59.203,167.623c1.572,0,2.938,0.355,4.097,1.064s2.041,1.675,2.644,2.896
				c0.603,1.221,0.904,2.586,0.904,4.097c0,1.587-0.32,2.995-0.961,4.223c-0.641,1.229-1.538,2.19-2.689,2.884
				c-1.152,0.694-2.483,1.056-3.994,1.087c-1.572,0-2.934-0.354-4.085-1.064c-1.152-0.71-2.03-1.671-2.632-2.884
				c-0.603-1.213-0.904-2.575-0.904-4.085c0-1.572,0.316-2.976,0.95-4.211c0.633-1.236,1.53-2.205,2.689-2.907
				C56.38,168.02,57.708,167.654,59.203,167.623z M54.671,175.817c0,1.083,0.183,2.048,0.549,2.896
				c0.366,0.847,0.889,1.503,1.568,1.968c0.679,0.466,1.476,0.698,2.392,0.698c0.854,0,1.628-0.209,2.323-0.629
				c0.694-0.419,1.244-1.061,1.648-1.923c0.404-0.862,0.606-1.911,0.606-3.147c0-1.068-0.183-2.022-0.549-2.861
				c-0.366-0.839-0.893-1.495-1.58-1.968c-0.687-0.473-1.48-0.709-2.38-0.709c-0.824,0-1.583,0.232-2.277,0.698
				c-0.694,0.466-1.251,1.129-1.671,1.992C54.881,173.692,54.671,174.688,54.671,175.817z"/>
			<path fill="#0081C6" d="M81.394,170.999c0.893,0.466,1.591,1.152,2.094,2.06c0.503,0.908,0.755,2.011,0.755,3.308
				c0,1.679-0.466,3.147-1.396,4.406c-0.931,1.259-2.083,2.254-3.457,2.987c-1.373,0.732-2.731,1.182-4.074,1.351l-0.412-2.449
				c2.838-0.778,4.761-1.907,5.768-3.388c-0.732,0.351-1.496,0.526-2.289,0.526c-0.946,0-1.801-0.213-2.563-0.641
				c-0.763-0.427-1.362-1-1.797-1.717c-0.435-0.717-0.652-1.511-0.652-2.38c0-0.931,0.213-1.754,0.641-2.472
				c0.427-0.717,1.015-1.278,1.763-1.682c0.748-0.404,1.594-0.606,2.541-0.606C79.475,170.301,80.501,170.534,81.394,170.999z
				 M76.713,176.744c0.458,0.481,1.038,0.721,1.739,0.721c1.175,0,2.182-0.313,3.021-0.938c-0.015-1.282-0.297-2.231-0.847-2.85
				s-1.29-0.927-2.22-0.927c-0.672,0-1.236,0.214-1.694,0.641c-0.458,0.427-0.687,0.946-0.687,1.557
				C76.027,175.665,76.255,176.264,76.713,176.744z"/>
			<path fill="#0081C6" d="M85.388,177.03c0-1.282,0.274-2.434,0.824-3.456c0.549-1.022,1.309-1.823,2.278-2.403
				c0.969-0.58,2.063-0.87,3.284-0.87c1.206,0,2.292,0.286,3.262,0.858c0.969,0.572,1.724,1.37,2.266,2.392
				c0.542,1.022,0.813,2.167,0.813,3.434c0,1.313-0.275,2.491-0.824,3.536c-0.549,1.045-1.309,1.862-2.277,2.449
				c-0.969,0.587-2.056,0.881-3.262,0.881s-2.292-0.294-3.261-0.881c-0.969-0.587-1.729-1.4-2.278-2.438
				C85.663,179.495,85.388,178.328,85.388,177.03z M88.112,176.962c0,0.824,0.156,1.568,0.469,2.231
				c0.313,0.664,0.748,1.183,1.305,1.557c0.557,0.374,1.187,0.561,1.888,0.561s1.331-0.183,1.889-0.549
				c0.557-0.366,0.992-0.87,1.305-1.511c0.313-0.641,0.469-1.365,0.469-2.174c0-0.809-0.161-1.537-0.481-2.186
				c-0.32-0.648-0.759-1.156-1.316-1.522c-0.557-0.366-1.187-0.549-1.889-0.549c-0.687,0-1.309,0.18-1.865,0.538
				c-0.557,0.358-0.992,0.851-1.305,1.476C88.268,175.459,88.112,176.168,88.112,176.962z"/>
			<path fill="#0081C6" d="M99.258,177.03c0-1.282,0.274-2.434,0.824-3.456c0.549-1.022,1.309-1.823,2.278-2.403
				c0.969-0.58,2.063-0.87,3.284-0.87c1.206,0,2.292,0.286,3.262,0.858c0.969,0.572,1.724,1.37,2.266,2.392
				c0.542,1.022,0.813,2.167,0.813,3.434c0,1.313-0.275,2.491-0.824,3.536c-0.549,1.045-1.309,1.862-2.277,2.449
				c-0.969,0.587-2.056,0.881-3.262,0.881s-2.292-0.294-3.261-0.881c-0.969-0.587-1.729-1.4-2.278-2.438
				C99.533,179.495,99.258,178.328,99.258,177.03z M101.982,176.962c0,0.824,0.156,1.568,0.469,2.231
				c0.313,0.664,0.748,1.183,1.305,1.557c0.557,0.374,1.187,0.561,1.888,0.561s1.331-0.183,1.889-0.549
				c0.557-0.366,0.992-0.87,1.305-1.511c0.313-0.641,0.469-1.365,0.469-2.174c0-0.809-0.161-1.537-0.481-2.186
				c-0.32-0.648-0.759-1.156-1.316-1.522c-0.557-0.366-1.187-0.549-1.889-0.549c-0.687,0-1.309,0.18-1.865,0.538
				c-0.557,0.358-0.992,0.851-1.305,1.476C102.138,175.459,101.982,176.168,101.982,176.962z"/>
			<path fill="#0081C6" d="M119.491,170.599v12.955h-2.975v-9.659l-2.609,1.007l-1.122-2.22l4.715-2.083H119.491z"/>
		</g>
	</g>
</g>
<g>
	<g>
		<path d="M175.768,234.575l0.498-1.803c0.423,0.218,0.904,0.41,1.442,0.575c0.538,0.166,1.03,0.249,1.477,0.249
			c0.687,0,1.207-0.108,1.562-0.326c0.354-0.217,0.532-0.532,0.532-0.944c0-0.286-0.14-0.546-0.421-0.781
			c-0.28-0.234-0.712-0.512-1.296-0.833l-0.515-0.309c-0.767-0.458-1.376-0.853-1.828-1.185s-0.841-0.724-1.167-1.176
			s-0.489-0.958-0.489-1.52c0-0.595,0.16-1.13,0.481-1.605c0.32-0.475,0.781-0.847,1.382-1.116c0.601-0.269,1.319-0.403,2.154-0.403
			c0.984,0,2.083,0.292,3.296,0.875l-0.738,1.785c-0.47-0.229-0.896-0.406-1.279-0.532c-0.383-0.125-0.798-0.189-1.244-0.189
			c-0.515,0-0.936,0.101-1.262,0.301s-0.489,0.495-0.489,0.884c0,0.332,0.128,0.609,0.386,0.833c0.257,0.223,0.678,0.507,1.262,0.85
			l0.549,0.309l0.498,0.292c0.675,0.389,1.213,0.729,1.614,1.021c0.4,0.292,0.735,0.646,1.004,1.064
			c0.269,0.418,0.403,0.907,0.403,1.468c0,0.629-0.169,1.185-0.506,1.665c-0.338,0.48-0.835,0.858-1.494,1.133
			c-0.658,0.275-1.445,0.412-2.36,0.412c-0.48,0-1.079-0.106-1.794-0.317C176.709,235.042,176.157,234.815,175.768,234.575z"/>
		<path d="M193.329,224.189l-0.687,1.597l-0.429-0.121c-0.446-0.137-0.801-0.231-1.064-0.283c-0.263-0.051-0.589-0.077-0.979-0.077
			c-0.618,0-1.173,0.172-1.665,0.515s-0.878,0.835-1.159,1.476c-0.281,0.641-0.42,1.391-0.42,2.249c0,0.767,0.123,1.468,0.369,2.103
			c0.246,0.635,0.604,1.139,1.073,1.51c0.469,0.372,1.024,0.558,1.665,0.558c0.847,0,1.7-0.177,2.558-0.532l0.841,1.648
			c-0.435,0.229-0.964,0.412-1.588,0.549c-0.624,0.138-1.188,0.206-1.691,0.206c-1.179,0-2.186-0.263-3.021-0.79
			c-0.836-0.526-1.465-1.245-1.889-2.154c-0.423-0.91-0.635-1.937-0.635-3.082c0-1.19,0.232-2.249,0.695-3.176
			c0.464-0.927,1.122-1.651,1.974-2.171c0.853-0.521,1.84-0.781,2.961-0.781c0.412,0,0.916,0.063,1.511,0.189
			C192.345,223.749,192.872,223.938,193.329,224.189z"/>
		<path d="M194.205,229.769h4.498l0.171,1.751h-4.48L194.205,229.769z"/>
		<path d="M208.71,224.189l-0.687,1.597l-0.429-0.121c-0.446-0.137-0.801-0.231-1.064-0.283c-0.263-0.051-0.589-0.077-0.979-0.077
			c-0.618,0-1.173,0.172-1.665,0.515s-0.878,0.835-1.159,1.476c-0.281,0.641-0.42,1.391-0.42,2.249c0,0.767,0.123,1.468,0.369,2.103
			c0.246,0.635,0.604,1.139,1.073,1.51c0.469,0.372,1.024,0.558,1.665,0.558c0.847,0,1.7-0.177,2.558-0.532l0.841,1.648
			c-0.435,0.229-0.964,0.412-1.588,0.549c-0.624,0.138-1.188,0.206-1.691,0.206c-1.179,0-2.186-0.263-3.021-0.79
			c-0.836-0.526-1.465-1.245-1.889-2.154c-0.423-0.91-0.635-1.937-0.635-3.082c0-1.19,0.232-2.249,0.695-3.176
			c0.464-0.927,1.122-1.651,1.974-2.171c0.853-0.521,1.84-0.781,2.961-0.781c0.412,0,0.916,0.063,1.511,0.189
			C207.726,223.749,208.252,223.938,208.71,224.189z"/>
		<path d="M218.34,233.614l0.36,1.734h-8.171v-11.673h6.97l0.343,1.751h-5.098v3.142h3.811l0.361,1.768h-4.171v3.279H218.34z"/>
		<path d="M220.503,235.348v-11.673h3.657c1.35,0,2.458,0.307,3.322,0.918c0.864,0.612,1.296,1.502,1.296,2.669
			c0,0.698-0.18,1.311-0.541,1.837c-0.361,0.526-0.844,0.938-1.451,1.236l2.867,5.013h-2.369l-2.472-4.429h-2.094v4.429H220.503z
			 M224.091,225.528h-1.373v3.571h1.407c0.698,0,1.256-0.14,1.674-0.421c0.418-0.28,0.627-0.718,0.627-1.313
			C226.426,226.141,225.647,225.528,224.091,225.528z"/>
		<path d="M236.571,228.927c0.572,0.321,1.021,0.75,1.348,1.288c0.326,0.538,0.489,1.133,0.489,1.785
			c0,0.698-0.161,1.316-0.481,1.854c-0.32,0.538-0.761,0.959-1.322,1.262c-0.561,0.303-1.196,0.455-1.905,0.455
			c-0.87,0-1.64-0.175-2.309-0.523c-0.669-0.349-1.193-0.864-1.571-1.545c-0.377-0.681-0.566-1.508-0.566-2.481
			c0-1.259,0.349-2.36,1.047-3.304c0.698-0.944,1.562-1.691,2.592-2.24c1.03-0.549,2.048-0.887,3.056-1.013l0.309,1.837
			c-2.128,0.584-3.571,1.431-4.326,2.541c0.549-0.263,1.122-0.395,1.717-0.395C235.357,228.447,235.998,228.607,236.571,228.927z
			 M235.901,233.253c0.343-0.32,0.515-0.709,0.515-1.167c0-0.538-0.171-0.987-0.515-1.348c-0.344-0.36-0.779-0.541-1.305-0.541
			c-0.881,0-1.637,0.235-2.266,0.704c0.011,0.961,0.223,1.674,0.635,2.137c0.412,0.464,0.967,0.695,1.665,0.695
			C235.134,233.734,235.558,233.574,235.901,233.253z"/>
		<path d="M245.583,228.927c0.572,0.321,1.021,0.75,1.348,1.288c0.326,0.538,0.489,1.133,0.489,1.785
			c0,0.698-0.161,1.316-0.481,1.854c-0.32,0.538-0.761,0.959-1.322,1.262c-0.561,0.303-1.196,0.455-1.905,0.455
			c-0.87,0-1.64-0.175-2.309-0.523c-0.669-0.349-1.193-0.864-1.571-1.545c-0.377-0.681-0.566-1.508-0.566-2.481
			c0-1.259,0.349-2.36,1.047-3.304c0.698-0.944,1.562-1.691,2.592-2.24c1.03-0.549,2.048-0.887,3.056-1.013l0.309,1.837
			c-2.128,0.584-3.571,1.431-4.326,2.541c0.549-0.263,1.122-0.395,1.717-0.395C244.37,228.447,245.01,228.607,245.583,228.927z
			 M244.914,233.253c0.343-0.32,0.515-0.709,0.515-1.167c0-0.538-0.171-0.987-0.515-1.348c-0.344-0.36-0.779-0.541-1.305-0.541
			c-0.881,0-1.637,0.235-2.266,0.704c0.011,0.961,0.223,1.674,0.635,2.137c0.412,0.464,0.967,0.695,1.665,0.695
			C244.146,233.734,244.57,233.574,244.914,233.253z"/>
		<path d="M248.278,230.455c0-0.961,0.206-1.825,0.618-2.592c0.412-0.767,0.981-1.368,1.708-1.803
			c0.727-0.435,1.547-0.652,2.463-0.652c0.904,0,1.719,0.215,2.446,0.644c0.727,0.429,1.293,1.027,1.699,1.794
			c0.406,0.767,0.609,1.625,0.609,2.575c0,0.984-0.206,1.869-0.618,2.652c-0.412,0.784-0.981,1.396-1.708,1.836
			c-0.727,0.44-1.542,0.661-2.446,0.661c-0.904,0-1.72-0.221-2.446-0.661c-0.727-0.44-1.296-1.05-1.708-1.828
			C248.484,232.304,248.278,231.428,248.278,230.455z M250.321,230.404c0,0.618,0.117,1.176,0.352,1.674
			c0.234,0.498,0.561,0.887,0.979,1.167c0.418,0.281,0.89,0.421,1.417,0.421c0.526,0,0.998-0.138,1.416-0.412
			c0.418-0.275,0.744-0.652,0.979-1.133c0.234-0.48,0.352-1.024,0.352-1.63s-0.12-1.153-0.36-1.64
			c-0.241-0.486-0.57-0.867-0.987-1.142c-0.418-0.274-0.89-0.412-1.416-0.412c-0.515,0-0.981,0.135-1.399,0.404
			s-0.744,0.638-0.979,1.107S250.321,229.809,250.321,230.404z"/>
		<path d="M262.234,225.408c0.767,0,1.422,0.135,1.966,0.403c0.543,0.269,0.953,0.63,1.228,1.082
			c0.274,0.452,0.412,0.953,0.412,1.502c0,0.492-0.143,0.953-0.429,1.382c-0.286,0.429-0.606,0.724-0.961,0.884
			c0.229,0.058,0.466,0.206,0.712,0.446c0.246,0.24,0.455,0.549,0.626,0.927c0.172,0.377,0.257,0.79,0.257,1.236
			c0,0.629-0.166,1.202-0.498,1.717c-0.332,0.515-0.807,0.921-1.425,1.219c-0.618,0.297-1.328,0.446-2.129,0.446
			c-0.583,0-1.208-0.103-1.871-0.309s-1.288-0.463-1.871-0.772l1.133-1.494c0.458,0.275,0.887,0.472,1.288,0.592
			c0.4,0.12,0.853,0.18,1.356,0.18c0.538,0,1.001-0.143,1.39-0.429s0.584-0.664,0.584-1.133c0-0.538-0.212-0.958-0.635-1.262
			c-0.424-0.303-1.07-0.455-1.94-0.455h-0.721l-0.309-1.733h1.133c0.687,0,1.236-0.129,1.648-0.386
			c0.412-0.258,0.618-0.598,0.618-1.021c0-0.343-0.149-0.632-0.446-0.867c-0.298-0.234-0.687-0.352-1.167-0.352
			c-0.847,0-1.7,0.297-2.558,0.893l-1.047-1.494c0.595-0.389,1.19-0.687,1.785-0.893S261.582,225.408,262.234,225.408z"/>
		<path d="M271.762,225.631v9.716h-2.232v-7.244l-1.957,0.755l-0.841-1.666l3.536-1.562H271.762z"/>
		<path d="M276.86,225.408c0.767,0,1.422,0.135,1.966,0.403c0.543,0.269,0.953,0.63,1.228,1.082
			c0.274,0.452,0.412,0.953,0.412,1.502c0,0.492-0.143,0.953-0.429,1.382c-0.286,0.429-0.606,0.724-0.961,0.884
			c0.229,0.058,0.466,0.206,0.712,0.446c0.246,0.24,0.455,0.549,0.626,0.927c0.172,0.377,0.257,0.79,0.257,1.236
			c0,0.629-0.166,1.202-0.498,1.717c-0.332,0.515-0.807,0.921-1.425,1.219c-0.618,0.297-1.328,0.446-2.129,0.446
			c-0.583,0-1.208-0.103-1.871-0.309s-1.288-0.463-1.871-0.772l1.133-1.494c0.458,0.275,0.887,0.472,1.288,0.592
			c0.4,0.12,0.853,0.18,1.356,0.18c0.538,0,1.001-0.143,1.39-0.429s0.584-0.664,0.584-1.133c0-0.538-0.212-0.958-0.635-1.262
			c-0.424-0.303-1.07-0.455-1.94-0.455h-0.721l-0.309-1.733h1.133c0.687,0,1.236-0.129,1.648-0.386
			c0.412-0.258,0.618-0.598,0.618-1.021c0-0.343-0.149-0.632-0.446-0.867c-0.298-0.234-0.687-0.352-1.167-0.352
			c-0.847,0-1.7,0.297-2.558,0.893l-1.047-1.494c0.595-0.389,1.19-0.687,1.785-0.893S276.208,225.408,276.86,225.408z"/>
	</g>
	<g>
		<g>
			<path fill="#0081C6" d="M181.784,210.61c-12.964,0-23.507-10.546-23.507-23.506V29.212c0-12.967,10.543-23.517,23.507-23.517
				h92.581c12.962,0,23.507,10.549,23.507,23.517v157.892c0,12.96-10.545,23.506-23.507,23.506H181.784z M164.886,187.104
				c0,9.317,7.579,16.897,16.898,16.897h92.581c9.319,0,16.898-7.581,16.898-16.897v-54.065
				c-19.058,11.282-40.81,17.229-63.106,17.229c-22.356,0-44.168-5.979-63.271-17.323V187.104z"/>
			<path fill="#FFFFFF" d="M274.365,7.347c12.074,0,21.855,9.792,21.855,21.866v157.89c0,12.074-9.781,21.854-21.855,21.854h-92.583
				c-12.072,0-21.854-9.781-21.854-21.854V29.213c0-12.074,9.783-21.866,21.854-21.866H274.365 M181.782,205.652h92.583
				c10.223,0,18.552-8.316,18.552-18.55v-57.001c-18.795,11.743-40.988,18.517-64.76,18.517c-23.848,0-46.1-6.819-64.924-18.615
				v57.1C163.234,197.336,171.55,205.652,181.782,205.652 M274.365,4.043h-92.583c-13.871,0-25.157,11.29-25.157,25.169v157.89
				c0,13.874,11.286,25.162,25.157,25.162h92.583c13.873,0,25.162-11.288,25.162-25.162V29.213
				C299.527,15.333,288.238,4.043,274.365,4.043 M181.782,202.349c-8.404,0-15.246-6.839-15.246-15.247v-51.294
				c18.753,10.559,39.935,16.113,61.622,16.113c21.626,0,42.748-5.524,61.454-16.022v51.203c0,8.407-6.84,15.247-15.246,15.247
				H181.782z"/>
			<path fill="#FFFFFF" d="M292.916,130.1v57.005c0,10.232-8.328,18.549-18.55,18.549h-92.583c-10.234,0-18.548-8.316-18.548-18.549
				v-57.104c18.824,11.797,41.076,18.616,64.924,18.616C251.928,148.617,274.122,141.842,292.916,130.1"/>
			<path fill="#FFFFFF" d="M228.084,68.606c-5.804-0.004-10.52-4.728-10.516-10.53c0.005-5.802,4.729-10.52,10.533-10.514
				c5.802,0.003,10.519,4.727,10.515,10.528C238.611,63.896,233.888,68.611,228.084,68.606 M228.098,51.458
				c-3.655-0.002-6.629,2.968-6.633,6.622c-0.001,3.653,2.969,6.627,6.622,6.629c3.654,0.004,6.629-2.967,6.631-6.62
				C234.722,54.435,231.751,51.459,228.098,51.458"/>
			<path fill="#FFFFFF" d="M208.795,74.659c-3.828-4.467-6.149-10.263-6.145-16.593c0.003-5.045,1.488-9.747,4.027-13.705
				l-3.116-2.352c-3.032,4.619-4.803,10.128-4.808,16.053c-0.005,7.407,2.75,14.178,7.281,19.356L208.795,74.659z"/>
			<path fill="#FFFFFF" d="M206.032,38.749l2.761,2.762c0.844-0.986,1.767-1.907,2.751-2.756l-2.76-2.761
				C207.81,36.849,206.889,37.771,206.032,38.749"/>
			<path fill="#FFFFFF" d="M228.176,28.683c-5.953-0.004-11.497,1.777-16.133,4.832l2.347,3.119
				c3.976-2.563,8.708-4.057,13.782-4.053c6.645,0.007,12.841,2.518,17.539,7l3.405-2.106
				C243.622,31.855,236.184,28.692,228.176,28.683"/>
			<path fill="#FFFFFF" d="M239.885,68.997c-2.931,3.149-7.107,5.121-11.742,5.12c-8.84-0.006-16.025-7.205-16.02-16.043
				c0.006-8.842,7.203-16.027,16.042-16.02c3.273,0.002,6.408,1.003,9.032,2.797l3.556-2.2c-3.509-2.866-7.933-4.492-12.584-4.494
				c-10.986-0.007-19.935,8.926-19.944,19.915c-0.007,10.988,8.926,19.935,19.915,19.942c5.934,0.003,11.265-2.601,14.923-6.724
				L239.885,68.997z"/>
			<path fill="#FFFFFF" d="M242.336,79.269c-4.062,2.73-8.951,4.324-14.201,4.318c-6.333-0.004-12.123-2.333-16.587-6.17
				l-2.761,2.758c5.172,4.541,11.94,7.304,19.344,7.309c6.166,0.006,11.89-1.902,16.623-5.15L242.336,79.269z"/>
			<path fill="#FFFFFF" d="M251.741,40.426l-11.393,7.05c0,0,3.839,4.459,3.839,10.621c0,2.807-0.734,5.449-2.009,7.745l3.174,2.293
				c1.73-2.951,2.729-6.378,2.73-10.037c0.004-3.291-0.802-6.503-2.333-9.379l4.75-2.941c2.075,3.761,3.16,7.984,3.157,12.323
				c-0.003,7.414-3.188,14.093-8.258,18.754l2.419,3.064c5.97-5.381,9.738-13.167,9.738-21.814
				C257.554,47.638,251.741,40.426,251.741,40.426"/>
			<path fill="#FFFFFF" d="M207.19,102.083c-4.546-0.004-8.248,3.683-8.255,8.219c-0.002,4.534,3.697,8.227,8.245,8.23
				c4.549,0.002,8.255-3.684,8.257-8.218C215.441,105.779,211.744,102.084,207.19,102.083 M207.182,115.155
				c-2.684-0.002-4.863-2.178-4.862-4.852c0-2.671,2.188-4.844,4.868-4.844c2.686,0.001,4.865,2.18,4.863,4.852
				C212.049,112.983,209.866,115.157,207.182,115.155"/>
			<path fill="#FFFFFF" d="M179.579,118.018l-3.446-0.004l0.009-14.052l3.446,0.003L179.579,118.018z M177.861,102.169
				c-1.174,0-2.094-0.917-2.092-2.086c0-1.171,0.922-2.085,2.095-2.083c1.172,0,2.09,0.918,2.09,2.087
				C179.953,101.255,179.033,102.169,177.861,102.169"/>
			<path fill="#FFFFFF" d="M226.461,102.043c-4.553-0.003-8.255,3.684-8.259,8.219c0,0.005-0.002,7.903-0.002,7.903l3.638,0.002
				l0.005-8.156c0-2.533,2.071-4.592,4.614-4.589c2.509,0.002,4.558,2.012,4.605,4.501l-0.007,8.25l3.645,0.002l0.006-7.899
				C234.707,105.739,231.009,102.048,226.461,102.043"/>
			<path fill="#FFFFFF" d="M245.786,115.43h-0.002c0,0-0.537,0.04-0.747,0.04c-1.485,0-2.188-0.372-2.188-2.47l0.009-8.044
				l3.074,0.002l0.001-2.682l-3.066-0.002l0.002-3.153l-3.64-0.003v3.155l-2.093-0.001l-0.002,2.667l2.091,0.005l-0.006,7.559
				c0,1.097,0.081,2.695,0.775,3.958c0.762,1.391,2.111,2.096,4.011,2.098c0.917,0,1.779-0.173,1.779-0.173L245.786,115.43z"/>
			<path fill="#FFFFFF" d="M191.066,118.561c-4.571,0-8.289-3.717-8.285-8.271c0.002-4.56,3.725-8.26,8.296-8.26
				c3.871,0,6.026,2.588,6.026,2.588l-2.206,2.727c0,0-1.363-1.858-3.822-1.858c-2.662,0-4.828,2.154-4.83,4.805
				c-0.002,2.652,2.163,4.813,4.823,4.813c2.526,0,3.855-1.895,3.855-1.895l2.219,2.72
				C197.142,115.93,194.937,118.561,191.066,118.561"/>
			<path fill="#FFFFFF" d="M274.464,118.561c-4.569,0-8.29-3.717-8.286-8.271c0.002-4.56,3.726-8.26,8.298-8.26
				c3.87,0,6.024,2.588,6.024,2.588l-2.206,2.727c0,0-1.364-1.858-3.822-1.858c-2.662,0-4.827,2.154-4.83,4.805
				c-0.002,2.652,2.162,4.813,4.824,4.813c2.526,0,3.856-1.895,3.856-1.895l2.216,2.72
				C280.54,115.93,278.335,118.561,274.464,118.561"/>
			<path fill="#FFFFFF" d="M255.918,101.962c-4.837,0-7.745,4.006-7.745,8.356c0,4.85,3.381,8.247,8.233,8.247
				c4.873,0,6.75-3.648,6.75-3.648l-2.489-1.864c0,0-1.268,2.245-4.2,2.245c-2.584,0-4.56-1.615-4.718-4.038l11.757,0.008
				c0,0,0.056-0.761,0.056-1.028C263.563,106.688,261.792,101.962,255.918,101.962 M251.886,108.582
				c0.29-2.088,1.997-3.473,4.059-3.473c2.162,0.002,3.742,1.36,3.943,3.479L251.886,108.582z"/>
		</g>
		<g>
			<path fill="#0081C6" d="M183.808,167.989v15.564h-2.953v-15.564H183.808z"/>
			<path fill="#0081C6" d="M186.83,182.524l0.664-2.403c0.564,0.29,1.205,0.545,1.922,0.767s1.374,0.332,1.969,0.332
				c0.916,0,1.609-0.145,2.083-0.435c0.473-0.29,0.709-0.709,0.709-1.259c0-0.381-0.187-0.729-0.561-1.042
				c-0.374-0.313-0.95-0.683-1.728-1.11l-0.687-0.412c-1.023-0.61-1.835-1.137-2.438-1.58c-0.603-0.442-1.122-0.965-1.556-1.568
				c-0.435-0.603-0.652-1.278-0.652-2.025c0-0.793,0.213-1.507,0.641-2.14s1.042-1.129,1.843-1.488
				c0.801-0.358,1.758-0.538,2.873-0.538c1.312,0,2.777,0.389,4.395,1.167l-0.984,2.38c-0.626-0.305-1.194-0.542-1.705-0.709
				s-1.064-0.252-1.66-0.252c-0.687,0-1.247,0.134-1.682,0.401s-0.652,0.66-0.652,1.179c0,0.442,0.172,0.813,0.515,1.11
				c0.343,0.298,0.904,0.675,1.682,1.133l0.732,0.412l0.664,0.389c0.9,0.519,1.617,0.973,2.151,1.362
				c0.534,0.389,0.98,0.862,1.339,1.419s0.538,1.209,0.538,1.957c0,0.839-0.226,1.579-0.675,2.22
				c-0.45,0.641-1.114,1.144-1.991,1.51c-0.878,0.366-1.927,0.549-3.147,0.549c-0.641,0-1.438-0.141-2.392-0.423
				C188.084,183.146,187.348,182.844,186.83,182.524z"/>
			<path fill="#0081C6" d="M206.239,167.623c1.572,0,2.938,0.355,4.097,1.064s2.041,1.675,2.644,2.896
				c0.603,1.221,0.904,2.586,0.904,4.097c0,1.587-0.32,2.995-0.961,4.223c-0.641,1.229-1.538,2.19-2.689,2.884
				c-1.152,0.694-2.483,1.056-3.994,1.087c-1.572,0-2.934-0.354-4.085-1.064c-1.152-0.71-2.03-1.671-2.632-2.884
				c-0.603-1.213-0.904-2.575-0.904-4.085c0-1.572,0.316-2.976,0.95-4.211c0.633-1.236,1.53-2.205,2.689-2.907
				C203.416,168.02,204.743,167.654,206.239,167.623z M201.707,175.817c0,1.083,0.183,2.048,0.549,2.896
				c0.366,0.847,0.889,1.503,1.568,1.968c0.679,0.466,1.476,0.698,2.392,0.698c0.854,0,1.628-0.209,2.323-0.629
				c0.694-0.419,1.244-1.061,1.648-1.923c0.404-0.862,0.606-1.911,0.606-3.147c0-1.068-0.183-2.022-0.549-2.861
				c-0.366-0.839-0.893-1.495-1.58-1.968c-0.687-0.473-1.48-0.709-2.38-0.709c-0.824,0-1.583,0.232-2.277,0.698
				c-0.694,0.466-1.251,1.129-1.671,1.992C201.917,173.692,201.707,174.688,201.707,175.817z"/>
			<path fill="#0081C6" d="M226.77,170.599v12.955h-2.975v-9.659l-2.609,1.007l-1.122-2.22l4.715-2.083H226.77z"/>
			<path fill="#0081C6" d="M238.214,179.754h2.403l-0.297,2.449h-2.106v2.93h-2.999v-2.93h-6.34l-0.389-2.449l7.507-9.27h2.22
				V179.754z M235.216,179.754v-4.509l-3.525,4.509H235.216z"/>
			<path fill="#0081C6" d="M241.647,177.03c0-1.282,0.274-2.434,0.824-3.456c0.549-1.022,1.309-1.823,2.278-2.403
				c0.969-0.58,2.063-0.87,3.284-0.87c1.206,0,2.292,0.286,3.262,0.858c0.969,0.572,1.724,1.37,2.266,2.392
				c0.542,1.022,0.813,2.167,0.813,3.434c0,1.313-0.275,2.491-0.824,3.536c-0.549,1.045-1.309,1.862-2.277,2.449
				c-0.969,0.587-2.056,0.881-3.262,0.881s-2.292-0.294-3.261-0.881c-0.969-0.587-1.729-1.4-2.278-2.438
				C241.922,179.495,241.647,178.328,241.647,177.03z M244.371,176.962c0,0.824,0.156,1.568,0.469,2.231
				c0.313,0.664,0.748,1.183,1.305,1.557c0.557,0.374,1.187,0.561,1.888,0.561s1.331-0.183,1.889-0.549
				c0.557-0.366,0.992-0.87,1.305-1.511c0.313-0.641,0.469-1.365,0.469-2.174c0-0.809-0.161-1.537-0.481-2.186
				c-0.32-0.648-0.759-1.156-1.316-1.522c-0.557-0.366-1.187-0.549-1.889-0.549c-0.687,0-1.309,0.18-1.865,0.538
				c-0.557,0.358-0.992,0.851-1.305,1.476C244.527,175.459,244.371,176.168,244.371,176.962z"/>
			<path fill="#0081C6" d="M255.518,177.03c0-1.282,0.274-2.434,0.824-3.456c0.549-1.022,1.309-1.823,2.278-2.403
				c0.969-0.58,2.063-0.87,3.284-0.87c1.206,0,2.292,0.286,3.262,0.858c0.969,0.572,1.724,1.37,2.266,2.392
				c0.542,1.022,0.813,2.167,0.813,3.434c0,1.313-0.275,2.491-0.824,3.536c-0.549,1.045-1.309,1.862-2.277,2.449
				c-0.969,0.587-2.056,0.881-3.262,0.881s-2.292-0.294-3.261-0.881c-0.969-0.587-1.729-1.4-2.278-2.438
				C255.792,179.495,255.518,178.328,255.518,177.03z M258.241,176.962c0,0.824,0.156,1.568,0.469,2.231
				c0.313,0.664,0.748,1.183,1.305,1.557c0.557,0.374,1.187,0.561,1.888,0.561s1.331-0.183,1.889-0.549
				c0.557-0.366,0.992-0.87,1.305-1.511c0.313-0.641,0.469-1.365,0.469-2.174c0-0.809-0.161-1.537-0.481-2.186
				c-0.32-0.648-0.759-1.156-1.316-1.522c-0.557-0.366-1.187-0.549-1.889-0.549c-0.687,0-1.309,0.18-1.865,0.538
				c-0.557,0.358-0.992,0.851-1.305,1.476C258.397,175.459,258.241,176.168,258.241,176.962z"/>
			<path fill="#0081C6" d="M275.75,170.599v12.955h-2.975v-9.659l-2.609,1.007l-1.122-2.22l4.715-2.083H275.75z"/>
		</g>
	</g>
</g>
<g>
	<g>
		<path d="M330.475,223.4c1.179,0,2.203,0.266,3.073,0.798c0.87,0.532,1.53,1.256,1.983,2.172c0.452,0.916,0.678,1.94,0.678,3.073
			c0,1.19-0.24,2.246-0.721,3.167c-0.481,0.921-1.153,1.643-2.017,2.163c-0.864,0.521-1.863,0.792-2.996,0.815
			c-1.179,0-2.2-0.266-3.064-0.798c-0.864-0.532-1.522-1.253-1.974-2.163c-0.452-0.91-0.678-1.932-0.678-3.064
			c0-1.179,0.238-2.231,0.713-3.159c0.475-0.927,1.147-1.653,2.017-2.18C328.357,223.697,329.354,223.423,330.475,223.4z
			 M327.076,229.545c0,0.813,0.137,1.536,0.412,2.171c0.275,0.635,0.667,1.127,1.176,1.477c0.509,0.349,1.107,0.523,1.794,0.523
			c0.641,0,1.221-0.157,1.742-0.472c0.521-0.314,0.933-0.795,1.236-1.442s0.455-1.434,0.455-2.36c0-0.801-0.137-1.516-0.412-2.146
			c-0.274-0.629-0.669-1.121-1.185-1.476c-0.515-0.354-1.11-0.532-1.785-0.532c-0.618,0-1.188,0.175-1.708,0.523
			c-0.521,0.349-0.938,0.847-1.253,1.494C327.233,227.952,327.076,228.699,327.076,229.545z"/>
		<path d="M337.616,234.575l0.498-1.803c0.423,0.218,0.904,0.41,1.442,0.575c0.538,0.166,1.03,0.249,1.477,0.249
			c0.687,0,1.207-0.108,1.562-0.326c0.354-0.217,0.532-0.532,0.532-0.944c0-0.286-0.14-0.546-0.421-0.781
			c-0.28-0.234-0.712-0.512-1.296-0.833l-0.515-0.309c-0.767-0.458-1.376-0.853-1.828-1.185s-0.841-0.724-1.167-1.176
			s-0.489-0.958-0.489-1.52c0-0.595,0.16-1.13,0.481-1.605c0.32-0.475,0.781-0.847,1.382-1.116c0.601-0.269,1.319-0.403,2.154-0.403
			c0.984,0,2.083,0.292,3.296,0.875l-0.738,1.785c-0.47-0.229-0.896-0.406-1.279-0.532c-0.383-0.125-0.798-0.189-1.244-0.189
			c-0.515,0-0.936,0.101-1.262,0.301s-0.489,0.495-0.489,0.884c0,0.332,0.128,0.609,0.386,0.833c0.257,0.223,0.678,0.507,1.262,0.85
			l0.549,0.309l0.498,0.292c0.675,0.389,1.213,0.729,1.614,1.021c0.4,0.292,0.735,0.646,1.004,1.064
			c0.269,0.418,0.403,0.907,0.403,1.468c0,0.629-0.169,1.185-0.506,1.665c-0.338,0.48-0.835,0.858-1.494,1.133
			c-0.658,0.275-1.445,0.412-2.36,0.412c-0.48,0-1.079-0.106-1.794-0.317C338.558,235.042,338.005,234.815,337.616,234.575z"/>
		<path d="M346.372,229.769h4.498l0.171,1.751h-4.48L346.372,229.769z"/>
		<path d="M360.877,224.189l-0.687,1.597l-0.429-0.121c-0.446-0.137-0.801-0.231-1.064-0.283c-0.263-0.051-0.589-0.077-0.979-0.077
			c-0.618,0-1.173,0.172-1.665,0.515s-0.878,0.835-1.159,1.476c-0.281,0.641-0.42,1.391-0.42,2.249c0,0.767,0.123,1.468,0.369,2.103
			c0.246,0.635,0.604,1.139,1.073,1.51c0.469,0.372,1.024,0.558,1.665,0.558c0.847,0,1.7-0.177,2.558-0.532l0.841,1.648
			c-0.435,0.229-0.964,0.412-1.588,0.549c-0.624,0.138-1.188,0.206-1.691,0.206c-1.179,0-2.186-0.263-3.021-0.79
			c-0.836-0.526-1.465-1.245-1.889-2.154c-0.423-0.91-0.635-1.937-0.635-3.082c0-1.19,0.232-2.249,0.695-3.176
			c0.464-0.927,1.122-1.651,1.974-2.171c0.853-0.521,1.84-0.781,2.961-0.781c0.412,0,0.916,0.063,1.511,0.189
			C359.893,223.749,360.419,223.938,360.877,224.189z"/>
		<path d="M370.507,233.614l0.36,1.734h-8.171v-11.673h6.97l0.343,1.751h-5.098v3.142h3.811l0.361,1.768h-4.171v3.279H370.507z"/>
		<path d="M372.67,235.348v-11.673h3.657c1.35,0,2.458,0.307,3.322,0.918c0.864,0.612,1.296,1.502,1.296,2.669
			c0,0.698-0.18,1.311-0.541,1.837c-0.361,0.526-0.844,0.938-1.451,1.236l2.867,5.013h-2.369l-2.472-4.429h-2.094v4.429H372.67z
			 M376.258,225.528h-1.373v3.571h1.407c0.698,0,1.256-0.14,1.674-0.421c0.418-0.28,0.627-0.718,0.627-1.313
			C378.593,226.141,377.814,225.528,376.258,225.528z"/>
		<path d="M388.738,228.927c0.572,0.321,1.021,0.75,1.348,1.288c0.326,0.538,0.489,1.133,0.489,1.785
			c0,0.698-0.161,1.316-0.481,1.854c-0.32,0.538-0.761,0.959-1.322,1.262c-0.561,0.303-1.196,0.455-1.905,0.455
			c-0.87,0-1.64-0.175-2.309-0.523c-0.669-0.349-1.193-0.864-1.571-1.545c-0.377-0.681-0.566-1.508-0.566-2.481
			c0-1.259,0.349-2.36,1.047-3.304c0.698-0.944,1.562-1.691,2.592-2.24c1.03-0.549,2.048-0.887,3.056-1.013l0.309,1.837
			c-2.128,0.584-3.571,1.431-4.326,2.541c0.549-0.263,1.122-0.395,1.717-0.395C387.524,228.447,388.165,228.607,388.738,228.927z
			 M388.068,233.253c0.343-0.32,0.515-0.709,0.515-1.167c0-0.538-0.171-0.987-0.515-1.348c-0.344-0.36-0.779-0.541-1.305-0.541
			c-0.881,0-1.637,0.235-2.266,0.704c0.011,0.961,0.223,1.674,0.635,2.137c0.412,0.464,0.967,0.695,1.665,0.695
			C387.301,233.734,387.725,233.574,388.068,233.253z"/>
		<path d="M397.75,228.927c0.572,0.321,1.021,0.75,1.348,1.288c0.326,0.538,0.489,1.133,0.489,1.785
			c0,0.698-0.161,1.316-0.481,1.854c-0.32,0.538-0.761,0.959-1.322,1.262c-0.561,0.303-1.196,0.455-1.905,0.455
			c-0.87,0-1.64-0.175-2.309-0.523c-0.669-0.349-1.193-0.864-1.571-1.545c-0.377-0.681-0.566-1.508-0.566-2.481
			c0-1.259,0.349-2.36,1.047-3.304c0.698-0.944,1.562-1.691,2.592-2.24c1.03-0.549,2.048-0.887,3.056-1.013l0.309,1.837
			c-2.128,0.584-3.571,1.431-4.326,2.541c0.549-0.263,1.122-0.395,1.717-0.395C396.537,228.447,397.177,228.607,397.75,228.927z
			 M397.081,233.253c0.343-0.32,0.515-0.709,0.515-1.167c0-0.538-0.171-0.987-0.515-1.348c-0.344-0.36-0.779-0.541-1.305-0.541
			c-0.881,0-1.637,0.235-2.266,0.704c0.011,0.961,0.223,1.674,0.635,2.137c0.412,0.464,0.967,0.695,1.665,0.695
			C396.313,233.734,396.737,233.574,397.081,233.253z"/>
		<path d="M400.445,230.455c0-0.961,0.206-1.825,0.618-2.592c0.412-0.767,0.981-1.368,1.708-1.803
			c0.727-0.435,1.547-0.652,2.463-0.652c0.904,0,1.719,0.215,2.446,0.644c0.727,0.429,1.293,1.027,1.699,1.794
			c0.406,0.767,0.609,1.625,0.609,2.575c0,0.984-0.206,1.869-0.618,2.652c-0.412,0.784-0.981,1.396-1.708,1.836
			c-0.727,0.44-1.542,0.661-2.446,0.661c-0.904,0-1.72-0.221-2.446-0.661c-0.727-0.44-1.296-1.05-1.708-1.828
			C400.651,232.304,400.445,231.428,400.445,230.455z M402.488,230.404c0,0.618,0.117,1.176,0.352,1.674
			c0.234,0.498,0.561,0.887,0.979,1.167c0.418,0.281,0.89,0.421,1.417,0.421c0.526,0,0.998-0.138,1.416-0.412
			c0.418-0.275,0.744-0.652,0.979-1.133c0.234-0.48,0.352-1.024,0.352-1.63s-0.12-1.153-0.36-1.64
			c-0.241-0.486-0.57-0.867-0.987-1.142c-0.418-0.274-0.89-0.412-1.416-0.412c-0.515,0-0.981,0.135-1.399,0.404
			s-0.744,0.638-0.979,1.107S402.488,229.809,402.488,230.404z"/>
		<path d="M414.401,225.408c0.767,0,1.422,0.135,1.966,0.403c0.543,0.269,0.953,0.63,1.228,1.082
			c0.274,0.452,0.412,0.953,0.412,1.502c0,0.492-0.143,0.953-0.429,1.382c-0.286,0.429-0.606,0.724-0.961,0.884
			c0.229,0.058,0.466,0.206,0.712,0.446c0.246,0.24,0.455,0.549,0.626,0.927c0.172,0.377,0.257,0.79,0.257,1.236
			c0,0.629-0.166,1.202-0.498,1.717c-0.332,0.515-0.807,0.921-1.425,1.219c-0.618,0.297-1.328,0.446-2.129,0.446
			c-0.583,0-1.208-0.103-1.871-0.309s-1.288-0.463-1.871-0.772l1.133-1.494c0.458,0.275,0.887,0.472,1.288,0.592
			c0.4,0.12,0.853,0.18,1.356,0.18c0.538,0,1.001-0.143,1.39-0.429s0.584-0.664,0.584-1.133c0-0.538-0.212-0.958-0.635-1.262
			c-0.424-0.303-1.07-0.455-1.94-0.455h-0.721l-0.309-1.733h1.133c0.687,0,1.236-0.129,1.648-0.386
			c0.412-0.258,0.618-0.598,0.618-1.021c0-0.343-0.149-0.632-0.446-0.867c-0.298-0.234-0.687-0.352-1.167-0.352
			c-0.847,0-1.7,0.297-2.558,0.893l-1.047-1.494c0.595-0.389,1.19-0.687,1.785-0.893S413.749,225.408,414.401,225.408z"/>
		<path d="M423.929,225.631v9.716h-2.232v-7.244l-1.957,0.755l-0.841-1.666l3.536-1.562H423.929z"/>
		<path d="M432.512,232.498h1.803l-0.223,1.837h-1.58v2.197h-2.249v-2.197h-4.755l-0.292-1.837l5.63-6.953h1.665V232.498z
			 M430.263,232.498v-3.382l-2.644,3.382H430.263z"/>
	</g>
	<g>
		<path fill="#0081C6" d="M333.117,210.613c-12.961,0-23.506-10.546-23.506-23.506V29.213c0-12.967,10.545-23.518,23.506-23.518
			H425.7c12.96,0,23.505,10.551,23.505,23.518v157.894c0,12.96-10.545,23.506-23.505,23.506H333.117z M316.22,187.107
			c0,9.315,7.58,16.896,16.897,16.896H425.7c9.317,0,16.896-7.581,16.896-16.896v-54.065
			c-19.055,11.282-40.808,17.229-63.106,17.229c-22.356,0-44.167-5.98-63.271-17.323V187.107z"/>
		<path fill="#FFFFFF" d="M425.7,7.348c12.073,0,21.854,9.793,21.854,21.865v157.894c0,12.071-9.781,21.854-21.854,21.854h-92.583
			c-12.073,0-21.854-9.782-21.854-21.854V29.213c0-12.072,9.781-21.865,21.854-21.865H425.7 M333.117,205.656H425.7
			c10.222,0,18.55-8.317,18.55-18.549v-57.004c-18.793,11.742-40.988,18.517-64.759,18.517c-23.849,0-46.099-6.819-64.924-18.616
			v57.104C314.567,197.339,322.884,205.656,333.117,205.656 M425.7,4.043h-92.583c-13.873,0-25.159,11.291-25.159,25.17v157.894
			c0,13.872,11.286,25.158,25.159,25.158H425.7c13.873,0,25.159-11.286,25.159-25.158V29.213
			C450.859,15.334,439.573,4.043,425.7,4.043 M333.117,202.352c-8.407,0-15.245-6.839-15.245-15.244v-51.297
			c18.752,10.56,39.931,16.114,61.619,16.114c21.626,0,42.748-5.524,61.454-16.023v51.206c0,8.405-6.838,15.244-15.245,15.244
			H333.117z"/>
		<path fill="#FFFFFF" d="M444.249,130.104v57.004c0,10.231-8.327,18.549-18.549,18.549h-92.583
			c-10.233,0-18.548-8.317-18.548-18.549v-57.104c18.824,11.797,41.076,18.614,64.923,18.614
			C403.261,148.618,425.457,141.846,444.249,130.104"/>
		<path fill="#FFFFFF" d="M379.418,68.607c-5.803-0.003-10.521-4.727-10.515-10.53c0.004-5.801,4.728-10.519,10.531-10.513
			c5.803,0.003,10.52,4.727,10.515,10.53C389.944,63.897,385.221,68.612,379.418,68.607 M379.431,51.458
			c-3.653-0.002-6.629,2.969-6.632,6.623c-0.002,3.653,2.97,6.627,6.622,6.631c3.655,0.003,6.629-2.968,6.631-6.621
			C386.054,54.436,383.084,51.461,379.431,51.458"/>
		<path fill="#FFFFFF" d="M360.13,74.661c-3.83-4.467-6.151-10.263-6.146-16.593c0.003-5.045,1.486-9.746,4.026-13.703l-3.116-2.353
			c-3.033,4.618-4.803,10.128-4.808,16.053c-0.005,7.406,2.748,14.178,7.28,19.356L360.13,74.661z"/>
		<path fill="#FFFFFF" d="M357.366,38.751l2.759,2.762c0.846-0.987,1.766-1.909,2.753-2.757l-2.76-2.762
			C359.143,36.851,358.222,37.772,357.366,38.751"/>
		<path fill="#FFFFFF" d="M379.509,28.685c-5.954-0.003-11.496,1.777-16.132,4.831l2.346,3.12c3.979-2.564,8.709-4.058,13.783-4.053
			c6.646,0.004,12.84,2.517,17.542,7l3.403-2.106C394.955,31.857,387.518,28.692,379.509,28.685"/>
		<path fill="#FFFFFF" d="M391.218,68.998c-2.931,3.149-7.108,5.122-11.741,5.119c-8.841-0.005-16.026-7.204-16.02-16.042
			c0.005-8.842,7.203-16.028,16.042-16.021c3.273,0.002,6.409,1.003,9.033,2.797l3.555-2.2c-3.509-2.867-7.931-4.491-12.584-4.495
			c-10.986-0.007-19.934,8.926-19.943,19.916c-0.007,10.988,8.927,19.934,19.915,19.942c5.933,0.004,11.266-2.601,14.925-6.724
			L391.218,68.998z"/>
		<path fill="#FFFFFF" d="M393.67,79.27c-4.062,2.731-8.949,4.323-14.202,4.319c-6.332-0.004-12.123-2.334-16.585-6.172
			l-2.763,2.759c5.171,4.542,11.94,7.304,19.345,7.309c6.164,0.005,11.89-1.902,16.623-5.151L393.67,79.27z"/>
		<path fill="#FFFFFF" d="M403.074,40.428l-11.393,7.05c0,0,3.839,4.459,3.839,10.62c0,2.809-0.732,5.45-2.01,7.746l3.176,2.293
			c1.73-2.951,2.728-6.378,2.73-10.036c0.003-3.29-0.805-6.502-2.335-9.379l4.751-2.941c2.075,3.76,3.16,7.985,3.158,12.324
			c-0.005,7.413-3.19,14.093-8.26,18.752l2.419,3.066c5.97-5.38,9.74-13.166,9.74-21.815
			C408.889,47.639,403.074,40.428,403.074,40.428"/>
		<path fill="#FFFFFF" d="M358.525,102.084c-4.547-0.004-8.25,3.684-8.253,8.22c-0.003,4.533,3.695,8.227,8.242,8.231
			c4.551,0.002,8.255-3.686,8.258-8.219C366.776,105.78,363.077,102.086,358.525,102.084 M358.515,115.157
			c-2.683-0.002-4.863-2.177-4.862-4.852c0.002-2.673,2.185-4.846,4.869-4.846c2.684,0.002,4.864,2.179,4.863,4.854
			C363.383,112.984,361.201,115.161,358.515,115.157"/>
		<path fill="#FFFFFF" d="M330.914,118.021l-3.449-0.004l0.01-14.054l3.448,0.004L330.914,118.021z M329.195,102.17
			c-1.173,0-2.092-0.917-2.091-2.085c0.001-1.172,0.921-2.087,2.093-2.084c1.174,0,2.092,0.917,2.091,2.087
			C331.287,101.256,330.367,102.17,329.195,102.17"/>
		<path fill="#FFFFFF" d="M377.793,102.045c-4.55-0.004-8.256,3.683-8.259,8.219c0,0.005-0.001,7.902-0.001,7.902l3.638,0.002
			l0.006-8.155c0.002-2.534,2.071-4.593,4.613-4.59c2.51,0.002,4.559,2.013,4.606,4.503l-0.006,8.249l3.642,0.002l0.005-7.899
			C386.042,105.739,382.344,102.048,377.793,102.045"/>
		<path fill="#FFFFFF" d="M397.121,115.433h-0.001c0,0-0.538,0.041-0.749,0.041c-1.483,0-2.189-0.372-2.188-2.472l0.007-8.043
			l3.076,0.002l0.003-2.683l-3.068-0.002l0.001-3.154l-3.638-0.002l-0.002,3.154l-2.094-0.002l-0.002,2.667l2.092,0.006l-0.005,7.56
			c-0.001,1.097,0.08,2.695,0.773,3.958c0.764,1.39,2.113,2.096,4.012,2.098c0.917,0,1.779-0.174,1.779-0.174L397.121,115.433z"/>
		<path fill="#FFFFFF" d="M342.399,118.563c-4.571,0-8.289-3.715-8.286-8.271c0.002-4.558,3.724-8.258,8.299-8.258
			c3.868,0,6.023,2.588,6.023,2.588l-2.206,2.726c0,0-1.363-1.859-3.821-1.859c-2.663,0-4.828,2.154-4.83,4.805
			c-0.002,2.652,2.161,4.813,4.824,4.813c2.526,0,3.855-1.894,3.855-1.894l2.216,2.72
			C348.474,115.932,346.27,118.563,342.399,118.563"/>
		<path fill="#FFFFFF" d="M425.798,118.563c-4.571,0-8.29-3.715-8.287-8.271c0.002-4.558,3.726-8.258,8.299-8.258
			c3.867,0,6.024,2.588,6.024,2.588l-2.205,2.726c0,0-1.364-1.859-3.821-1.859c-2.664,0-4.829,2.154-4.831,4.805
			c-0.003,2.652,2.162,4.813,4.823,4.813c2.526,0,3.855-1.894,3.855-1.894l2.217,2.72
			C431.874,115.932,429.669,118.563,425.798,118.563"/>
		<path fill="#FFFFFF" d="M407.252,101.964c-4.836,0-7.744,4.006-7.744,8.354c0,4.852,3.38,8.249,8.233,8.249
			c4.872,0,6.75-3.648,6.75-3.648l-2.487-1.863c0,0-1.268,2.246-4.203,2.246c-2.584,0-4.558-1.616-4.717-4.038l11.756,0.006
			c0,0,0.055-0.76,0.055-1.028C414.896,106.69,413.124,101.964,407.252,101.964 M403.22,108.584
			c0.288-2.089,1.997-3.475,4.059-3.473c2.163,0.002,3.744,1.359,3.943,3.479L403.22,108.584z"/>
		<path fill="#0081C6" d="M352.082,159.321c1.576,0,2.945,0.355,4.107,1.065c1.164,0.712,2.048,1.68,2.652,2.904
			c0.605,1.224,0.907,2.595,0.907,4.109c0,1.592-0.322,3.003-0.964,4.235c-0.643,1.231-1.542,2.195-2.698,2.892
			c-1.155,0.697-2.49,1.059-4.005,1.091c-1.578,0-2.942-0.356-4.098-1.066c-1.156-0.713-2.035-1.677-2.639-2.894
			c-0.605-1.216-0.907-2.582-0.907-4.097c0-1.577,0.318-2.984,0.953-4.226c0.635-1.239,1.533-2.209,2.698-2.913
			C349.25,159.72,350.581,159.352,352.082,159.321 M347.536,167.538c0,1.086,0.184,2.055,0.552,2.904
			c0.367,0.85,0.891,1.506,1.572,1.973s1.48,0.701,2.398,0.701c0.858,0,1.635-0.211,2.331-0.63c0.697-0.422,1.249-1.065,1.653-1.93
			c0.405-0.863,0.607-1.917,0.607-3.156c0-1.071-0.184-2.027-0.551-2.87c-0.367-0.842-0.895-1.498-1.583-1.973
			c-0.689-0.476-1.485-0.713-2.388-0.713c-0.826,0-1.587,0.232-2.284,0.699c-0.696,0.467-1.255,1.134-1.676,1.999
			C347.746,165.405,347.536,166.406,347.536,167.538"/>
		<polygon fill="#0081C6" points="371.615,175.296 371.615,168.687 365.463,168.687 365.463,175.296 362.503,175.296 
			362.503,159.688 365.463,159.573 365.463,166.299 371.615,166.299 371.615,159.688 374.576,159.688 374.576,175.296 		"/>
		<path fill="#0081C6" d="M377.607,174.263l0.666-2.409c0.566,0.29,1.208,0.547,1.928,0.769c0.721,0.224,1.376,0.333,1.974,0.333
			c0.919,0,1.615-0.145,2.09-0.435c0.474-0.29,0.711-0.712,0.711-1.263c0-0.383-0.187-0.731-0.562-1.046
			c-0.375-0.312-0.954-0.684-1.734-1.112l-0.69-0.413c-1.024-0.613-1.838-1.141-2.443-1.583c-0.604-0.445-1.126-0.969-1.562-1.573
			c-0.437-0.606-0.654-1.282-0.654-2.033c0-0.796,0.213-1.51,0.642-2.145s1.044-1.134,1.849-1.493c0.803-0.359,1.762-0.54,2.88-0.54
			c1.315,0,2.785,0.392,4.408,1.173l-0.987,2.386c-0.628-0.306-1.197-0.542-1.709-0.712c-0.513-0.168-1.067-0.252-1.664-0.252
			c-0.688,0-1.252,0.136-1.688,0.402c-0.437,0.267-0.655,0.66-0.655,1.181c0,0.445,0.172,0.815,0.518,1.115
			c0.343,0.297,0.906,0.675,1.688,1.136l0.734,0.413l0.664,0.389c0.905,0.521,1.622,0.978,2.158,1.366
			c0.537,0.39,0.983,0.865,1.344,1.425c0.359,0.56,0.539,1.211,0.539,1.962c0,0.841-0.226,1.583-0.676,2.227
			c-0.452,0.644-1.117,1.146-1.997,1.515s-1.932,0.551-3.157,0.551c-0.644,0-1.441-0.142-2.398-0.424
			C378.866,174.887,378.127,174.586,377.607,174.263"/>
		<path fill="#0081C6" d="M397.462,159.688l6.061,15.426l-2.984,0.413l-1.401-3.903h-5.92l-1.378,3.673h-2.984l6.082-15.608H397.462
			z M396.131,163.772l-2.043,5.441h4.132L396.131,163.772z"/>
		<path fill="#0081C6" d="M404.831,174.263l0.666-2.409c0.566,0.29,1.209,0.547,1.929,0.769c0.72,0.224,1.377,0.333,1.974,0.333
			c0.917,0,1.614-0.145,2.089-0.435c0.475-0.29,0.711-0.712,0.711-1.263c0-0.383-0.187-0.731-0.562-1.046
			c-0.375-0.312-0.953-0.684-1.734-1.112l-0.688-0.413c-1.024-0.613-1.839-1.141-2.444-1.583c-0.604-0.445-1.125-0.969-1.561-1.573
			c-0.437-0.606-0.655-1.282-0.655-2.033c0-0.796,0.214-1.51,0.643-2.145s1.044-1.134,1.848-1.493
			c0.802-0.359,1.763-0.54,2.881-0.54c1.315,0,2.785,0.392,4.407,1.173l-0.988,2.386c-0.627-0.306-1.196-0.542-1.709-0.712
			c-0.513-0.168-1.068-0.252-1.666-0.252c-0.688,0-1.251,0.136-1.686,0.402c-0.438,0.267-0.655,0.66-0.655,1.181
			c0,0.445,0.172,0.815,0.517,1.115c0.343,0.297,0.906,0.675,1.686,1.136l0.735,0.413l0.666,0.389
			c0.903,0.521,1.622,0.978,2.158,1.366c0.537,0.39,0.983,0.865,1.342,1.425c0.359,0.56,0.54,1.211,0.54,1.962
			c0,0.841-0.226,1.583-0.678,2.227c-0.452,0.644-1.116,1.146-1.995,1.515c-0.881,0.368-1.933,0.551-3.158,0.551
			c-0.643,0-1.441-0.142-2.398-0.424C406.09,174.887,405.352,174.586,404.831,174.263"/>
		<polygon fill="#0081C6" points="355.456,196.233 355.456,186.546 352.839,187.557 351.715,185.33 356.443,183.241 358.44,183.241 
			358.44,196.233 		"/>
		<path fill="#0081C6" d="M365.855,181.473c0.948,0,1.779,0.181,2.49,0.54s1.262,0.846,1.653,1.458
			c0.389,0.611,0.585,1.285,0.585,2.019c0,0.628-0.184,1.207-0.551,1.734c-0.368,0.526-0.85,0.929-1.447,1.204
			c0.674,0.23,1.271,0.693,1.791,1.39c0.52,0.695,0.78,1.42,0.78,2.169c0,0.826-0.213,1.588-0.642,2.285
			c-0.429,0.694-1.044,1.245-1.847,1.652c-0.804,0.404-1.742,0.608-2.812,0.608c-1.086,0-2.036-0.204-2.847-0.608
			c-0.811-0.407-1.432-0.953-1.859-1.642c-0.429-0.688-0.643-1.452-0.643-2.296c0-0.749,0.259-1.474,0.78-2.169
			c0.52-0.696,1.116-1.159,1.791-1.39c-0.597-0.26-1.077-0.656-1.436-1.193c-0.359-0.536-0.539-1.117-0.539-1.745
			c0-0.733,0.194-1.407,0.584-2.019c0.389-0.612,0.944-1.099,1.665-1.458C364.071,181.653,364.907,181.473,365.855,181.473
			 M365.855,189.622c-0.857,0.138-1.516,0.428-1.974,0.871c-0.459,0.445-0.689,0.958-0.689,1.538c0,0.629,0.26,1.134,0.781,1.515
			c0.52,0.386,1.14,0.575,1.859,0.575c0.704,0,1.324-0.189,1.859-0.575c0.535-0.381,0.803-0.886,0.803-1.515
			c0-0.58-0.232-1.093-0.7-1.538C367.328,190.05,366.681,189.76,365.855,189.622 M365.809,183.905c-0.566,0-1.048,0.162-1.445,0.482
			c-0.399,0.322-0.597,0.706-0.597,1.148c0,0.506,0.179,0.915,0.538,1.229c0.359,0.314,0.877,0.523,1.55,0.631
			c0.673-0.107,1.182-0.323,1.526-0.644c0.344-0.32,0.516-0.742,0.516-1.263c0-0.426-0.203-0.798-0.608-1.112
			C366.884,184.065,366.39,183.905,365.809,183.905"/>
		<path fill="#0081C6" d="M372.305,189.69c0-1.284,0.275-2.439,0.826-3.466c0.551-1.023,1.312-1.828,2.283-2.409
			c0.972-0.581,2.07-0.873,3.294-0.873c1.209,0,2.3,0.288,3.272,0.86c0.971,0.574,1.729,1.374,2.271,2.398
			c0.543,1.026,0.814,2.175,0.814,3.444c0,1.316-0.275,2.498-0.826,3.546c-0.551,1.05-1.313,1.867-2.284,2.457
			c-0.972,0.589-2.062,0.884-3.271,0.884s-2.299-0.295-3.271-0.884c-0.971-0.59-1.732-1.403-2.283-2.446
			C372.581,192.163,372.305,190.992,372.305,189.69 M375.036,189.622c0,0.826,0.157,1.572,0.471,2.239
			c0.313,0.665,0.748,1.186,1.307,1.561c0.559,0.374,1.19,0.562,1.894,0.562c0.705,0,1.335-0.184,1.895-0.551
			c0.558-0.368,0.993-0.872,1.307-1.515c0.314-0.644,0.473-1.371,0.473-2.182c0-0.81-0.163-1.541-0.483-2.19
			c-0.321-0.651-0.761-1.159-1.32-1.527c-0.559-0.368-1.191-0.551-1.894-0.551c-0.688,0-1.312,0.181-1.871,0.54
			s-0.994,0.852-1.307,1.48C375.193,188.114,375.036,188.826,375.036,189.622"/>
		<path fill="#0081C6" d="M386.215,189.69c0-1.284,0.275-2.439,0.826-3.466c0.552-1.023,1.313-1.828,2.285-2.409
			c0.972-0.581,2.07-0.873,3.293-0.873c1.21,0,2.3,0.288,3.272,0.86c0.972,0.574,1.728,1.374,2.271,2.398
			c0.543,1.026,0.815,2.175,0.815,3.444c0,1.316-0.275,2.498-0.826,3.546c-0.551,1.05-1.313,1.867-2.285,2.457
			c-0.972,0.589-2.062,0.884-3.271,0.884c-1.208,0-2.298-0.295-3.27-0.884c-0.972-0.59-1.733-1.403-2.285-2.446
			C386.491,192.163,386.215,190.992,386.215,189.69 M388.946,189.622c0,0.826,0.157,1.572,0.471,2.239
			c0.313,0.665,0.749,1.186,1.307,1.561c0.56,0.374,1.19,0.562,1.895,0.562s1.336-0.184,1.894-0.551
			c0.56-0.368,0.994-0.872,1.308-1.515c0.313-0.644,0.47-1.371,0.47-2.182c0-0.81-0.16-1.541-0.482-2.19
			c-0.322-0.651-0.762-1.159-1.32-1.527c-0.559-0.368-1.19-0.551-1.894-0.551c-0.688,0-1.312,0.181-1.872,0.54
			c-0.558,0.359-0.994,0.852-1.307,1.48C389.104,188.114,388.946,188.826,388.946,189.622"/>
		<polygon fill="#0081C6" points="403.521,196.233 403.521,186.546 400.905,187.557 399.781,185.33 404.509,183.241 
			406.506,183.241 406.506,196.233 		"/>
	</g>
</g>
</svg>
